<svg id="Layer_1" data-name="Layer 1" xmlns="http://www.w3.org/2000/svg" viewBox="0 0 273.04 229.35"><defs><style>.cls-1{fill:#f2f4f6;}.cls-1,.cls-2{stroke:#11131a;stroke-miterlimit:10;stroke-width:5px;}.cls-2{fill:#070707;}</style></defs><title>title_icon</title><path class="cls-1" d="M312.3,322.51,283.81,350.9l-32.48-32.54,4-4c1.44-1.44.87-4.4-1.28-6.56l-27.65-27.72q7.26-7.84,13.93-16.45l28.92,29c2.16,2.16,5.1,2.76,6.56,1.3l4-4Z" transform="translate(-57.41 -173.69)"/><path class="cls-1" d="M318.19,316.63l-5.89,5.88-32.47-32.57,4-4c1.46-1.45.86-4.41-1.3-6.57l-31.06-31.16c2-3,3.93-6,5.84-9C279.92,195.5,354.37,280.53,318.19,316.63Z" transform="translate(-57.41 -173.69)"/><path class="cls-1" d="M283.81,350.9l-28.5,28.42-32.47-32.57,4-4c1.44-1.43.88-4.39-1.28-6.55l-28.86-28.94q8.56-6.54,16.48-13.9L240.78,321c2.16,2.16,5.1,2.75,6.55,1.3l4-4Z" transform="translate(-57.41 -173.69)"/><path class="cls-1" d="M255.31,379.32,240.6,394c-29.37,29.31-104.82-48-67.4-70.93,2.7-1.55,5.34-3.19,7.93-4.85l31.17,31.22c2.15,2.17,5.09,2.76,6.55,1.3l4-4Z" transform="translate(-57.41 -173.69)"/><path class="cls-2" d="M241.58,318.65a5.36,5.36,0,0,1-1-.82L214.7,291.92c1.6-1.52,3.34-3.2,5.06-4.94s3.37-3.44,4.9-5.07l25.88,25.95c1.35,1.35,1.55,2.86,1.21,3.2l-8,8C243.5,319.28,242.62,319.28,241.58,318.65Z" transform="translate(-57.41 -173.69)"/><path class="cls-2" d="M213.1,347.05a5.39,5.39,0,0,1-1-.83L183,317.09c1.78-1.17,3.64-2.43,5.63-3.82s4-2.87,6.1-4.45l27.35,27.43a4.63,4.63,0,0,1,1.31,2.27,1.16,1.16,0,0,1-.1.94l-8,8C215,347.68,214.14,347.67,213.1,347.05Z" transform="translate(-57.41 -173.69)"/><path class="cls-2" d="M270.07,290.26a5.48,5.48,0,0,1-1.05-.83l-27.41-27.49c1.42-1.87,2.9-3.85,4.46-6,1.42-2,2.72-3.82,3.93-5.58l29,29.09c1.35,1.36,1.56,2.89,1.22,3.23l-8,8C272,290.89,271.11,290.88,270.07,290.26Z" transform="translate(-57.41 -173.69)"/><path class="cls-1" d="M204.49,258.1a257.68,257.68,0,0,0-30.84,26l-26.47-26.41,4-4c1.44-1.44.86-4.4-1.3-6.55L116.26,213.6l15.19-15.17L165.07,232c2.16,2.15,5.12,2.75,6.57,1.3l4-4Z" transform="translate(-57.41 -173.69)"/><path class="cls-1" d="M221.38,246.84q-8.74,5.39-16.89,11.26l-28.85-28.82,4-4c1.45-1.46.86-4.4-1.3-6.56l-33.62-33.57C181.29,150.81,264.83,224.45,221.38,246.84Z" transform="translate(-57.41 -173.69)"/><path class="cls-1" d="M118.73,286.16l4-4c1.44-1.44.86-4.4-1.3-6.55L87.8,242,103,226.85l33.64,33.59c2.16,2.15,5.1,2.74,6.56,1.28l4-4,26.47,26.41A231,231,0,0,0,147.57,315Z" transform="translate(-57.41 -173.69)"/><path class="cls-1" d="M66.48,263.36l8.07-8.07,33.62,33.57c2.16,2.16,5.12,2.76,6.58,1.3l4-4L147.57,315q-5.4,7.68-10.22,15.85C114.37,368.18,37.12,292.69,66.48,263.36Z" transform="translate(-57.41 -173.69)"/><path class="cls-2" d="M114.63,215.24l31.9,31.86c1.36,1.35,1.56,2.86,1.22,3.2l-4,4-4,4a1.18,1.18,0,0,1-.95.11,4.68,4.68,0,0,1-2.26-1.31l-31.92-31.88Z" transform="translate(-57.41 -173.69)"/><path class="cls-2" d="M81.18,248.68l5-5,31.92,31.88c1.35,1.35,1.56,2.86,1.22,3.21l-4,4-4,4c-.34.34-1.87.13-3.23-1.23l-31.9-31.85Z" transform="translate(-57.41 -173.69)"/><path class="cls-2" d="M138.09,191.8l5-5L175,218.68c1.35,1.35,1.56,2.86,1.22,3.2l-4,4-4,4a1.17,1.17,0,0,1-1,.1,4.7,4.7,0,0,1-2.27-1.32l-31.9-31.86Z" transform="translate(-57.41 -173.69)"/></svg>