<svg id="New_Layer" data-name="New Layer" xmlns="http://www.w3.org/2000/svg" viewBox="0 0 250 250"><defs><style>.cls-1{fill:#303dd8;}.cls-1,.cls-2,.cls-3,.cls-4,.cls-5,.cls-6,.cls-7{fill-rule:evenodd;}.cls-2{fill:#2e3acc;}.cls-3{fill:#2c3ebf;}.cls-4{fill:#2832b2;}.cls-5{fill:#252fa5;}.cls-6{fill:#222b99;}.cls-10,.cls-7{fill:#1d2088;}.cls-8{fill:#3341e5;}.cls-9{fill:#1c247f;}.cls-11{fill:#171d66;}</style></defs><title>w1</title><path class="cls-1" d="M58.64,3.83c-5.93,7-7.78,15.05-7.65,33C51.11,55.17,53.45,66.27,61.11,84,67,97.87,72.09,105.15,83,115.88c12.22,11.85,30.24,21,30.24,15.06,0-.62-3.21-4.69-7-9-21-23-36.9-62.57-42.08-104.16L62,0Z"/><path class="cls-1" d="M186.37,13.7c-4.81,45.17-20.73,85.4-43.19,109-4.57,4.81-6.3,7.53-5.81,9,1,2.47,3.34,1.85,13.21-3.33,19.5-10.24,36.78-33.69,44.8-61,3.7-13,5.31-35.17,3.08-46.52-1.6-8.64-5.67-17.53-8.63-19.13C188,.62,187.6,2,186.37,13.7Z"/><path class="cls-2" d="M34,18.51C25.44,28.26,29,58,41.73,83.3c14.07,28.14,39.74,48.75,66.52,53.44,3.33.49,1.73-.62-6.66-5.06C78,119.09,62.46,98.85,53.33,68.86c-1.85-6.17-5.18-15.79-7.53-21.59s-5.43-15.06-7-20.74C36.05,17.15,35.68,16.54,34,18.51Z"/><path class="cls-2" d="M211.92,25.18c-1.49,5.06-4.82,14.44-7.29,20.85a201,201,0,0,0-6.91,20.37c-7.28,28.26-27,54.3-49.48,65.4-5.31,2.6-9,4.94-8.27,5.19,2.71,1,25.42-7.53,32.21-12,21.84-14.2,41-42.95,46.52-69.73,3.09-15.3,2.22-30.85-2.22-37C214.88,16.29,214.51,16.91,211.92,25.18Z"/><path class="cls-3" d="M11,40.6c-4.2,9.14.62,29.25,11.35,46.9,12.35,20.49,27,34.55,45.79,43.69,13.45,6.54,28.14,10.24,38.38,9.62l6-.37-8.52-2.22c-26.78-7-50.23-26.53-63.18-52.57A164.31,164.31,0,0,0,31,68.86C28.16,64.79,22.85,56,19.15,49.49,12.61,37.89,12.36,37.52,11,40.6Z"/><path class="cls-3" d="M233.51,44.92c-1.85,3.58-6.41,11.36-10.24,17.16s-9.13,14.81-11.85,20c-15.79,29.86-36.28,48-62.57,55.29-4.81,1.36-9.13,2.71-9.5,3.08-1.36,1.24,13,.5,20.86-1.11,10.12-2.22,23.81-7.9,32.33-13.57,16.91-11.23,35.17-33.82,43-53.19,4.69-11.73,6.29-27.89,3.21-32C237,38.26,236.72,38.5,233.51,44.92Z"/><path class="cls-4" d="M1.74,71.46C1,75.28,3.6,86.14,6.56,92.07c6.17,12.21,20.36,27.89,33.2,36.65,8.14,5.55,24.68,13.2,33.93,15.55,8.89,2.34,29,2.71,35.18.74,3.58-1.23,3.58-1.23-1.85-1.36-16.54-.49-36.41-7-51.22-16.78-10-6.67-23.57-20.37-31.1-31.47C21.24,90.34,15.57,82.81,12,78.74,1.87,67.14,2.49,67.63,1.74,71.46Z"/><path class="cls-4" d="M243.26,72.81c-2,2.59-6,7.53-9.13,11s-9,11-13.08,16.78c-17.65,24.56-44.92,40.36-73.19,42.58-8.88.62-10,1-6.91,1.85,6.3,1.85,27.77,1.48,35.92-.74,26.41-6.91,53.8-28.26,65.78-51.09,5.3-10.25,7.4-19.38,5.43-23C247.09,68.37,246.47,68.74,243.26,72.81Z"/><path class="cls-5" d="M.26,99.1c-.37.62-.37,2.72.13,4.57,4.56,19,31.59,40,60.84,47.39,8.64,2.22,12.83,2.59,24.06,2,8.4-.37,16.17-1.48,19.87-2.71,8.15-2.84,9.51-4.32,2.84-3-8.39,1.61-25.54,1.24-34.06-.74-16.78-4-34.68-14.31-50.23-28.87C9.15,104,1.13,97.74.26,99.1Z"/><path class="cls-5" d="M240.92,104.9c-4.69,3.7-12.22,10.24-16.66,14.56-13.58,13.08-32.58,23.57-49.12,27.28-9.26,2.1-31.1,2-36.65-.13-1.73-.74-2.1-.61-1.24.37.74.74,5.43,2.47,10.49,3.83,18.14,5.06,42.21,2.47,61.09-6.66,21.35-10.25,42.58-32.46,41.1-42.95C249.56,98.24,249.19,98.36,240.92,104.9Z"/><path class="cls-6" d="M13.22,136.62c0,2.47,4.2,8.39,8.64,12.22,15.8,13.45,45.91,20.11,67.75,15,10.49-2.47,27.65-11.72,25.67-13.7-.49-.49-4.56.37-9.13,2C93.32,156.49,76,157,62,153.4a140.76,140.76,0,0,1-17.77-5.55c-3.83-1.48-11.36-4.45-16.79-6.42s-10.86-4.2-12-4.69S13.22,136.25,13.22,136.62Z"/><path class="cls-6" d="M224.87,140.69c-6,2.34-15.3,5.8-20.36,7.65-22.21,8.52-43.81,9.75-60.84,3.46-9.38-3.46-11.6-2.59-5.43,2.09,13.45,10.25,36.41,14.32,56.4,10.12,18.14-3.94,35.79-13.69,40-22.09,1.24-2.59,2.1-4.81,1.85-5.06S231,138.47,224.87,140.69Z"/><path class="cls-7" d="M110.84,156.86c-11.23,7.15-18.63,9.25-35.29,9.87-12.1.37-16.91,0-25.8-2.1-6-1.48-11.35-2.34-11.72-1.85-1.48,1.36,6.17,6.66,12.59,8.52,20.61,6.41,48.25,1.11,63.06-12C120.59,153.28,118.74,151.8,110.84,156.86Z"/><path class="cls-7" d="M131.7,153.28c0,2.22,11.6,11.6,17.89,14.44,15.68,7.16,37,8.39,51.71,2.84,6.79-2.47,12.84-6.79,11.48-8.15-.37-.37-5.92.62-12.46,2.1-9.63,2.22-14.32,2.59-26.29,2.22-16.29-.62-23.94-2.84-35.05-10.37C132.19,151.8,131.7,151.67,131.7,153.28Z"/><circle class="cls-8" cx="125" cy="53.66" r="37.26"/><path class="cls-9" d="M139.2,175.42c-19.4-13-50.51-36.65-57-58.61a21.34,21.34,0,0,0-1.75,18.54l24.09,64.36C116.12,197,128.29,187.13,139.2,175.42Z"/><path class="cls-10" d="M165.75,114l-12.42-13.77a16.56,16.56,0,0,0-17.22-5,38.68,38.68,0,0,1-22.22,0,16.56,16.56,0,0,0-17.22,5L84.25,114a19.29,19.29,0,0,0-2.07,2.78c6.51,22,37.62,45.62,57,58.61,13-13.93,24.18-30.41,30.44-40.29A21.1,21.1,0,0,0,165.75,114Z"/><path class="cls-11" d="M139.2,175.42c-10.91,11.71-23.08,21.62-34.68,24.29L122.7,248.3a2.4,2.4,0,0,0,4.6,0l24.31-65,18-48a1.87,1.87,0,0,0,.07-.22C163.38,145,152.19,161.49,139.2,175.42Z"/></svg>