<svg id="New_Layer" data-name="New Layer" xmlns="http://www.w3.org/2000/svg" viewBox="0 0 1818.6 1611.69"><defs><style>.cls-1{fill:#fff;}.cls-1,.cls-2,.cls-3{fill-rule:evenodd;}.cls-2{fill:#cccde4;}.cls-3{fill:#1d2088;}</style></defs><title>wing</title><path class="cls-1" d="M329.11-13.36c-1.9,2.1-1.7,4.7,2,27.7,2.7,16.9,7.8,35.4,18.8,68,9,26.8,16.9,49.1,19.4,55.4,1.2,2.9,2,5.6,1.7,5.8-.6.6-19.3-18.3-26.6-27.1-5.7-6.8-13.6-13.6-15.9-13.6a6.71,6.71,0,0,0-2.6,2c-1.4,1.6-1.5,2.3-.6,3.4a2.6,2.6,0,0,1,.7,2.5c-1.7,2.7,6.7,31.4,14.2,48.6,5.1,11.8,16.3,31.3,24.8,43.1l5.2,7.2-9.2,1.7c-5,.8-16.8,3.1-26.1,5-34.6,7-73.7,10.3-101.5,8.5-29.8-1.8-74.3-6.1-79-7.5-.8-.2-13.9-2.3-29-4.5s-33.7-5.1-41.2-6.4-14.6-2.2-15.8-1.9a6.57,6.57,0,0,1-3.7-.2c-3.6-1.6-6.6-1.6-8.4.1s-1.4,2.1,8.7,13.4c22.1,24.9,52.7,49.8,82.4,67a626.84,626.84,0,0,0,78.1,38.6l14.7,5.8-4.6,6.1c-2.6,3.3-8.1,10-12.2,15-15.2,17.9-24,30.4-33.3,47.3-3.1,5.6-5.7,10.4-5.7,10.7s-2,4.6-4.3,9.7c-11.7,24.9-22,58.3-34.7,112.3-17.6,74.6-29.8,111.9-46.3,140.3-9.1,16-20.7,30.4-30.2,37.8l-4,3.2,2,2.1c2.4,2.7,3,2.6,19.3-4,22.1-8.9,40.3-19,55.6-30.7,3.3-2.5,5.7-4.1,5.3-3.5s.7,8.9,2.3,18.4c3.5,21.4,5.6,43.2,7.5,80.5,2.9,59.4-2.9,108.8-19.2,162.9-2.5,8.2-5.3,16.6-6.3,18.5a73.23,73.23,0,0,0-3,7.5c-2.9,9.2-20.8,48.2-23.7,51.6-1.1,1.3-1,1.8.6,3.3s2.2,1.6,4.3.3a32,32,0,0,1,6.3-2.7c7.7-2.4,23.1-9.5,32-14.8,28.8-17.3,49.9-39.1,77.8-80.7,7.6-11.3,11.4-16.2,13.1-16.6,2.2-.6,2.5-.3,3,3,1.4,8.9,2.7,34.3,2.1,41.6-1.6,20.8-2.8,31.8-4.6,41.4s-1.9,10.4-.3,12.2,1.7,1.8,4.5-.2c3.8-2.7,17.3-18.4,27.9-32.4,9.9-13,14.7-18.7,13.7-16.2-.4,1-.2,7.2.4,13.8.8,8.8.8,17.3,0,31.7-2.4,40.7-7.5,68.3-20.6,110.2-2.2,7-2.2,7.6-.7,9.2s2.1,1.4,8.4-4.3c7.7-6.8,27.5-29.3,39.6-44.8,8.7-11.2,26.2-36.7,28.3-41.4,1.2-2.6,2.9-3.7,2.9-1.8,0,.6.7,6.1,1.5,12.3,5.5,42.2,5.4,93.8-.1,137.3-2.2,17.7-3.4,24.2-7.6,42.4-.9,3.8-.8,4.6,1,6.4l2,2,9.4-9.5c25.6-25.7,43.3-58.7,54.2-100.8,1.3-5.2,2.7-11.6,3.1-14.3s1-4.9,1.4-5.1,1.5,7.3,2.5,16.7c2,19.4,2.3,21.4,6.5,45.7,2.8,16.3,13.1,59.3,15,62.9.5.9,2.2,6.1,3.9,11.6,9.1,30.6,29.8,84.3,44.1,115,14.6,31.2,26.3,51,48.7,83,5.5,7.9,6,8.2,8.3,6.1,2.7-2.4,3.3-7.6,2.2-16.8-.8-5.6-.7-12.9.4-27,1.9-24.8,4.1-40.1,8.2-56.3,1.8-7.2,8.1-20.5,9.7-20.5s18.8,26.2,40.9,62.5q43.8,71.7,54.8,125.5c1.6,8,3.6,21.7,4.4,30.6,1.3,14.2,1.3,17.9,0,31-.8,8.2-1.9,16.6-2.5,18.7-1,3.3-.9,4.2.6,5.8a5.89,5.89,0,0,0,2.6,1.9c1.1,0,12.9-16,20.2-27.4,14.8-22.8,26.3-51.5,32-80,3.1-15.1,5-36.9,4.1-45.6l-.7-6.5,10.8,14.5c17.1,23,22.9,32.1,30.8,48s9.3,18.3,10.7,17.4c3-1.8-3.5,49.8-7,56.5-1.4,2.6,3.1,7,5.3,5.2,1.8-1.5,20.6-27.9,26.8-37.6,21.1-33.2,36.5-71.8,42.9-107.5,1-5.8,2.4-18.8,3-29,2.5-40.2-2.4-77.2-16.5-126.5-2.6-8.8-4.5-16.3-4.4-16.7s3.3,1.2,7.1,3.7c14.6,9.8,42,25.6,56.7,32.7s28.8,13.4,32,14.3c1.4.4,5,1.8,8,3a99.7,99.7,0,0,0,10.8,3.8c5.1,1.6,5.3,1.5,7.9-.7,3.3-2.9,4.5-.9-14.6-23.3-23.4-27.4-52-67.1-69.5-96.3-1.5-2.5-4.9-8.1-7.7-12.5s-6.4-10.5-8.3-13.5-6.3-10.5-10.1-16.5c-25.1-40.6-49.1-84.2-58.2-105.5-4.1-9.6-8.3-20.6-8.3-21.8,0-.2,2.8,2,6.3,5,20,17.4,41.2,32.4,60.8,42.9,1.2.6,2.2.2,3.8-1.5l2.2-2.3-11.4-13.6c-15.7-18.8-40.6-56.8-57.2-87.2-2.1-3.9-6.6-12-10-18s-7.1-12.8-8.3-15c-2.9-5.2-15.2-30.1-19-38.5-3.7-8.1-11-31.2-11.8-37.4-.8-5.4-2.8-5.7,16.1,2.2,21.6,8.9,32.4,12.8,78.5,28.1l48.2,16c2.2.7,3,.5,4.7-1.3l2.1-2.2-2.2-2.1c-1.3-1.1-8.1-6.2-15.3-11.3-66.5-48.1-103.1-80.7-144-128.5-4.2-5-9.8-11.5-12.5-14.5C660.81,708.94,606,636,591,609.34c-4.7-8.2-1.5-3.9,8.9,12,15.3,23.4,55.5,76.7,79.3,104.8,7.4,8.8,7.5,8.9,9.4,6.9,1.5-1.5,3.2-7.9,6.9-25.7,5.4-26.5,4.4-24.3,18.3-40,7.7-8.6,29.4-29,30.2-28.3.2.2-.8,3.1-2.1,6.5-3.2,7.8-5.9,24-8,46.7-1.5,16.6-1.5,19.2,0,34,1.7,16,2.2,18.3,4.8,20.4,2,1.7,4-.8,7-8.8,8.9-23.3,23.4-53.8,34.5-72.6,18.5-31.2,42.7-60.6,64.1-77.9,3.9-3.1,7.1-6,7.1-6.4,0-4.3,29.6-12.3,53.7-14.5l6.1-.6,1.1,4.8c.5,2.7,2.2,11.8,3.6,20.3,9.8,58.7,22.9,109.6,34.8,135.1,1.9,4,3.7,8.2,4.1,9.4a12.32,12.32,0,0,0,3.1,4.4c3.9,3.7,5.4,1.7,13.9-18.2,9-21.3,20.3-61.9,26.1-94.1,1.4-7.7,3.2-17,4-20.6s2.5-13.7,4-22.4,2.9-16.5,3.2-17.3c.6-1.6,2.7-1.5,19.3.7,7.9,1.1,29.5,6.2,34.4,8.1a25.18,25.18,0,0,1,6,4.3c1.7,1.8,7.2,6.8,12.2,11.1,8.5,7.3,22.3,22,32,33.9,21.6,26.5,43.6,66.1,60.4,108.7,2.3,5.9,5,11.4,6,12.3,1.6,1.5,1.9,1.4,3.8-1,2.8-3.5,3.7-13.2,3.6-38-.1-28-2.8-47.5-8.4-62.3l-2.9-7.3,7.2,6.3c18.3,16,36.1,35.7,37.6,41.5,2.8,10.9,6.2,26.9,7.6,35.8,1.6,10,3.4,13.8,6.1,12.8,1.8-.7,38.6-46.6,56.5-70.3,13.2-17.5,32.6-45.3,37.2-53.3,1.5-2.6,3-4.7,3.3-4.7,1.4,0-13.1,23-24.9,39.5-22.2,30.8-60.1,79.1-79.7,101.5-2.7,3-8.5,9.8-13.1,15-23,26.6-40.8,44.6-69.9,70.7-13.7,12.3-44.4,36.1-70.5,54.7-6,4.4-12.9,9.5-15.3,11.4l-4.3,3.4,2.1,2.3,2.1,2.2,13.2-4.4c7.3-2.4,18.6-6.1,25.2-8.2,39.7-12.8,79.5-27.1,98.1-35.4l10.1-4.5-.9,4.2a265.33,265.33,0,0,1-14.3,43.1c-5.2,11.8-24.9,49.4-35,66.5-1.7,3-5.8,10-9,15.5-21.4,36.7-34,55.2-51.8,76.4l-7.9,9.4,2.1,2.1,2.2,2.1,7.6-4c14.1-7.4,32.9-21,57.5-41.5l3.6-3-1.3,4.2c-4.1,13.2-18.1,42.1-32.7,67.7-3.4,5.8-8,14-10.2,18.1-4.3,7.8-18.6,31.7-24.2,40.5-1.7,2.7-5.6,9-8.6,14-10.5,17.2-17.1,28-20.3,33-5.9,9.3-23.8,36-27.4,41-14.6,19.9-26.3,34.8-40.1,51.1-14.8,17.6-15.8,19-14.3,20.6,2,2.3,3.8,2.3,11-.1,30.8-10.2,62-25.5,99.2-48.8,7.4-4.6,13.8-8,14.3-7.5s-.3,4.1-1.7,8.2-3.6,11.7-5,17c-9.1,34.8-11.9,50.8-13.9,80a265.18,265.18,0,0,0,9.4,92.7c8.1,28.3,21.9,58.5,37.6,82.3,7.1,10.9,24.4,34.9,25.5,35.6.6.3,2.1-.3,3.3-1.5l2.3-2.1-1.8-7.2c-1.7-6.9-5.4-34.3-6.2-46-.3-4.4-.1-5.5.8-4.8,1.8,1.5,3.7-1.3,8.6-12.5,5.9-13.5,14.1-26.7,29.3-47.5,7.1-9.6,13.3-17.9,13.8-18.5s.6,1.8.2,6c-.7,8.1.9,28.9,3.2,42,4.8,26.9,17.9,60.5,31.8,82,6.9,10.6,19.5,27.5,20.5,27.5a6,6,0,0,0,2.5-1.9c1.5-1.7,1.5-2.5.2-10.2q-8.1-47.25,11.4-105.2c9.6-28.4,26.8-63.8,47-96.2,17.8-28.7,23.5-37.7,31.1-49.2,4.8-7.3,9.1-12.8,9.6-12.5,1.5,1,5.7,9.7,8.2,16.9,6.4,18.9,11.5,69.1,9.2,91.3-.9,8.5-.8,9.8.8,12,1,1.4,2.4,2.5,3.1,2.5,1.5,0,5.7-5.7,20.3-27.5,19.2-28.6,31-51.5,49.9-96.5,10.3-24.4,27.3-72.8,35.6-101,10.1-34.5,15.6-63.6,20.3-108.3.6-6.2,1.3-11.1,1.5-10.9s1.2,4.6,2.3,9.8c9.3,45.3,28.9,83.7,56.9,111.8l8.3,8.3,2.4-2.2c1.8-1.7,2.2-2.7,1.6-4.4-2.3-5.9-8.3-42.5-10.2-62.1-1.6-16-1.6-81.1,0-98.5,1.2-13,3.8-32,4.5-32.7.2-.2,1.8,2,3.6,4.9,17.5,28.2,39.5,56.3,60.8,77.7,11.3,11.3,11.4,11.3,13.4,9.4s1.9-2-1.8-14.4c-8.1-27.5-13.3-50.5-15.8-70.4-2.6-20.8-3.9-51.6-2.7-65.4.6-6.8.8-12.9.5-13.5-1.1-2.3,6,6.2,13.3,15.9,10,13.1,23.5,28.8,27.2,31.4l2.9,2.1,2.1-2.6c1.1-1.5,1.9-3,1.6-3.4-1.4-2.3-5.4-31.8-6-44.5-.6-13.4.8-47.6,2.1-49.6,1-1.6,6,2.6,9.1,7.5,7.3,11.9,23.5,34.4,33.3,46.2,22.5,27.3,50.8,47.8,80.5,58.4l8,2.9,2.4-2.3,2.4-2.4-3.7-6.8c-8.4-16-20.4-45-27.4-66.4-9-27.1-16.6-66.7-19.3-100.5-2.5-30.5-1.1-76.2,3.6-121.5,1.6-15,5.2-38.8,6.1-40.2.3-.5,0-1.6-.8-2.5s1.4.5,4.7,3.2c13.4,10.8,35,22.9,55.5,31,18.1,7.1,17.8,7,20.1,4.9a6.38,6.38,0,0,0,1.9-2.5c0-.5-2.4-2.6-5.2-4.8-11.1-8.4-25.1-27.8-35.5-49.1-10.3-21-20.4-50.6-29.2-85.5-6.3-24.8-6.6-26.3-13.6-55-21-85.9-36.8-121.5-74.2-166.6-7-8.5-13.8-16.8-15-18.6l-2.2-3.1,4.2-1.6c30.7-11,74.3-33,104.7-52.8,22.4-14.6,48.8-37.1,65.2-55.7,10.7-12.2,10.9-12.5,9-14.3s-2.3-1.9-13.3-.3c-6.3.9-14.8,2.2-18.9,3s-18.5,3.1-32,5-28.3,4.2-33,5c-13.3,2.3-44.3,5.3-71.5,7-19.8,1.2-28.4,1.3-41.5.5-28-1.8-48.9-4.3-65-8-4.7-1.1-15-3.1-23-4.6s-14.7-2.8-14.9-3,1.5-2.4,3.7-5.1c4.3-5.2,11.7-16.9,19.2-30.3,8.6-15.4,17.7-41.1,20.2-56.4.6-3.9,1.7-8.2,2.5-9.4,1.3-2.2,1.3-2.6-.8-4.8-1.2-1.3-3-2.4-3.9-2.4s-3.7,2.4-6.1,5.2c-14.2,16.9-35.9,39.5-35.9,37.5,0-.3,2.7-7.9,5.9-16.9,7-19.2,24.7-72.8,29.1-87.8,3.3-11.2,7-32,7.3-40.7.2-4.2-.2-5.7-1.9-7.3l-2.1-2.2-8.9,10.9c-28.8,35-78,92.9-99.8,117.3-14.7,16.5-39.1,40.8-46.6,46.4-3,2.2-10,7.7-15.5,12.1-17,13.7-46.1,32.8-71.2,46.8-4.3,2.4-14.5,8.1-22.8,12.7-21.1,11.8-56.5,28.9-73,35.3-29.1,11.4-57.6,19.5-69.2,19.7-.6,0,1.3-4.6,4.3-10.3a636.06,636.06,0,0,0,29.6-63.5c4.7-11.8,4.9-12.5,3.2-14.3-.9-1-2-1.9-2.5-1.9s-3,2.8-5.7,6.3a168.34,168.34,0,0,1-11.8,13.2c-3.8,3.8-8.2,8.5-9.7,10.4-4.7,6-31.4,29.6-45.7,40.4a385.88,385.88,0,0,1-50.5,31.7c-5.5,2.9-13.5,7.3-17.8,9.8s-8,4.2-8.3,3.9.6-3.8,2.1-7.9c3.8-10.4,11-38.4,13.5-51.9,1.1-6.3,2.2-12.1,2.5-13s-.6-2.6-2.1-4l-2.6-2.4-3.2,3.9c-13,16.3-26.7,29.6-50.1,48.7-14.5,11.8-38,28.6-50.5,35.9l-4.7,2.8-1.8-9.7c-2.71-14.7-4.41-20.4-6.61-22.6l-2-2-2.3,2.6c-2.1,2.5-5.2,14.2-7.2,27.5l-.6,4.1-6.3-3.4c-3.4-2-13.2-8.5-21.6-14.5-30.2-21.5-56.8-44.5-71.5-61.7l-9.8-11.4-2.09,2.6-2.21,2.5,2.8,15.3c2.7,14.5,9.7,41.1,14,53.6,1,3.1,1.91,5.8,1.91,5.9s-2.41-1.1-5.21-2.8-12.9-7.3-22.29-12.3c-19.41-10.5-30.5-17.2-43.71-26.5-18.5-13.1-43.5-35.5-59.29-53.2-6.1-6.7-12.71-14-14.8-16.2l-3.8-3.9-2.3,2.2-2.4,2.3,3,6.6c1.7,3.7,3.8,8.9,4.8,11.7,4.2,11.4,19,42.4,28.5,59.6l4.5,8.1-4.6-.7c-9.8-1.4-52.3-15-69.9-22.4-34-14-56.6-25.7-104.5-53.6-52.8-30.8-85.71-57.8-126.6-104-34.21-38.7-95.9-112.1-98.31-117-2-4-6-9.5-7-9.5a5.73,5.73,0,0,0-2.4,1.8Zm183.8,280.2c.9,1.6,1.3,3,1.1,3s-1.2-1.4-2.1-3-1.3-3-1.1-3S512,265.14,512.91,266.84Zm7.6,12.2c2.3,4,5.5,9.1,6.9,11.3s7.1,10.7,12.5,19,15.1,22.4,21.4,31.5,13.3,19.2,15.6,22.5c20.1,29.4,42.1,59.3,57.9,78.9,4.4,5.5,7.5,9.6,6.8,9.2-3.2-2-45.2-56.4-58.4-75.8-3.5-5-7.9-11.4-9.9-14.2-13-18.6-41.5-61.2-46.8-70.3-1.8-3.2-5.3-9.1-7.8-13.1s-4-7.1-3.5-6.8S518.11,275,520.51,279Zm882.7-3.3c-5.3,9.1-15.1,24.8-25.1,40.5-5.4,8.5-27.2,40.2-41.6,60.6-19.3,27.3-56.9,76-58.7,76-.3,0,3-4.4,7.4-9.8s13.2-16.9,19.7-25.7,13-17.6,14.5-19.5c3.9-5.1,7.7-10.6,35.5-50.8,24.2-35.1,28.6-41.6,43.1-64.5C1404.61,272.14,1407.91,267.84,1403.21,275.74Zm-863,218.9c-1,1.2-1.3,1.2-1.6.1a10.29,10.29,0,0,0-1.5-2.7c-.8-1.1-.5-1.1,1.6-.1S541.21,493.44,540.21,494.64Zm843.1-2.1c-.7,1-1.4,2-1.6,2.2s-.7,0-1.4-.4c-.8-.6-.4-1.2,1.2-2.1C1384.71,490.44,1384.91,490.54,1383.31,492.54Zm166.8,57.5c-.3.7-.5.2-.5-1.2s.2-1.9.5-1.3A5.28,5.28,0,0,1,1550.11,550Zm-1179,0c-.3.8-.6.5-.6-.6s.2-1.7.5-1.3A2,2,0,0,1,371.11,550Zm211.3,36.8c1.1.7,1.2,1.2.3,2.1s-1.4.6-2.2-1C579.31,585.74,580,585.24,582.41,586.84Zm757.8,1c-.9,1.3-1.6,1.6-2.3.9s-.5-1.3.5-1.9C1340.81,585.34,1341.51,585.74,1340.21,587.84Zm-863.9,173.6c-1.6,1.9-2.9.8-2.9-2.3,0-2.5,0-2.6,2-.8C476.91,759.74,477.11,760.44,476.31,761.44Zm970.6-1.6c-.5,1.6-1,1.9-1.8,1.1s-.6-1.5.3-2.6C1447.11,756.34,1447.81,757,1446.91,759.84Zm-123.5,211a1,1,0,0,1-1,1,1.08,1.08,0,0,1-1-1,1,1,0,0,1,1-1A.94.94,0,0,1,1323.41,970.84Zm-118.3,38.2c-.3.7-.5.2-.5-1.2s.2-1.9.5-1.3A5.28,5.28,0,0,1,1205.11,1009Zm-31.7,2.2a6.23,6.23,0,0,1-1.7,1.7c-1.6,1.3-1.7,1.2-.4-.4S1173.41,1010.44,1173.41,1011.24Zm-757.3,37.4c-1.4,1.7-2.2,0-1.2-2.6.5-1.4.7-1.4,1.5-.2A2.42,2.42,0,0,1,416.11,1048.64Zm1090.3-.6c0,1.7-.3,1.8-1.4.8a2.49,2.49,0,0,1-.9-2.6C1504.81,1044.34,1506.41,1045.54,1506.41,1048Zm-312,132.1a17.74,17.74,0,0,1-2.7,2.8l-2.8,2.4,2.4-2.8C1193.61,1180,1194.41,1179.34,1194.41,1180.14Z" transform="translate(-50.7 15.16)"/><path class="cls-2" d="M704.64,205.63c-1.2,1.4-1,2.6,1.4,7.9,1.5,3.4,4,9.3,5.5,13.2,4.7,11.9,12.4,28.4,19.5,42,3.8,7.1,7.7,14.8,8.8,17a33.57,33.57,0,0,0,3.4,5.6c1.2,1.5,1.1,1.6-1.3,1.1s-2.4-.1,3.4,8.4c16.4,24.5,35.1,43.6,70.7,72.4l8,6.4-8.5-9.2c-41.2-44.8-59.5-70.4-80.6-112.4-2.4-4.8-4.3-8.8-4.1-8.8s4.4,4.8,9.3,10.7c25.2,30.7,60,60.2,98.3,83.2,9.4,5.7,38.3,21.2,37.1,19.9-.3-.3-5-3.6-10.5-7.3-39.7-26.9-88-70.2-119.4-107-9.3-10.8-27.7-31.6-35.6-40.3C706.34,204.43,705.84,204.23,704.64,205.63Z" transform="translate(-50.7 15.16)"/><path class="cls-2" d="M1206.94,212.93c-3.8,4.3-10.7,12.1-15.4,17.3s-12.6,14.2-17.5,20c-30.9,36.2-79.5,79.7-119,106.5-5.5,3.7-10.2,7-10.5,7.3-1.2,1.3,27.7-14.2,37.1-19.9,38.3-23,73.1-52.5,98.3-83.2,4.9-5.9,9.1-10.7,9.3-10.7s-1.7,4-4.1,8.8c-21.1,42-39.4,67.6-80.6,112.4l-8.5,9.2,8-6.4c35.6-28.8,54.3-47.9,70.7-72.4,5.8-8.5,5.9-8.9,3.4-8.4s-2.5.4-1.3-1.1a33.57,33.57,0,0,0,3.4-5.6c1.1-2.2,5-9.9,8.8-17,7.1-13.6,14.8-30.1,19.5-42,1.5-3.9,4-9.8,5.6-13.3,2.5-5.6,2.6-6.4,1.2-7.8S1213.14,205.93,1206.94,212.93Z" transform="translate(-50.7 15.16)"/><path class="cls-2" d="M58,209.23c-.4.6.8,2.3,2.5,3.8a96.6,96.6,0,0,1,7.3,7.2Q128.59,287,246,330.73c9.8,3.7,22.2,8.3,24.4,9.1.8.2,1.2.6,1,.9-.4.3-20.3-5.3-28.9-8.1-1-.3-2.9,1.4-5.4,4.8-2.2,2.9-7.4,9.3-11.6,14.3-18.5,21.8-31.7,41.9-41,62.4a34.33,34.33,0,0,1-4.8,7.8c-3,3-6.1,10-6.2,13.6a17.93,17.93,0,0,1-2.1,6.8c-2,4-1.9,7.7.1,6.4.6-.4,4.3-5.5,8.2-11.3,18-27,36.9-48.8,58.7-67.5,14.2-12.2,12.9-11.8,11.4-3.4-2.3,12.4-2.8,46.3-.9,59.7,4.6,31.9,15,55.7,37.1,85.2,5.1,6.8,10.8,13.8,12.8,15.7,3.2,3,3.7,3.2,4.3,1.7.4-1-.8-7-2.5-13.3a139.79,139.79,0,0,1-4.6-43.3c1-15.3,2.7-31,3.5-31,.4,0,1,3.2,1.4,7.1,1.3,14.5,9.5,51.4,15.3,69.4,1.5,4.4,2.8,8.6,3,9.4.2,1,.7,1.1,1.4.4s.6-4.1-.3-10.4c-1.8-13.8-1.5-48.7.5-63.9,3.5-25.6,8.6-49.1,20.6-94.3,5.3-20,6.5-23.7,10.7-30.5,9.6-15.7,18.4-34,22.8-47.2,4.1-12.2,5.5-18,4.1-18-.2,0-6.4,2.9-13.7,6.4-23.9,11.6-47.3,20-55.8,20-2.5,0-11.2-1.4-19.5-3.1s-25.3-5-37.9-7.3c-62-11-85-18.9-159.9-55.1-18.1-8.8-33-15.9-33.2-15.9S58.34,208.73,58,209.23Zm223.2,134.7c-.7.7-5.7-.8-5.7-1.8,0-.4,1.4-.3,3.1.3S281.44,343.63,281.24,343.93Zm18,74.5c-.3.8-.6.5-.6-.6s.2-1.7.5-1.3A2,2,0,0,1,299.24,418.43Zm-1,9.5c-.3,1-.5.2-.5-1.7s.2-2.7.5-1.8A10.28,10.28,0,0,1,298.24,427.93Z" transform="translate(-50.7 15.16)"/><path class="cls-2" d="M1837.54,220.43c-78.3,38.3-106.2,48.4-161.5,58.3-11,2-29.2,5.5-40.5,7.8s-22.5,4.1-25,4.1c-8.4,0-31.8-8.4-55.8-20-7.3-3.5-13.5-6.4-13.7-6.4-1.4,0,0,5.8,4.1,18,4.4,13.2,13.2,31.5,22.8,47.2,4.2,6.8,5.4,10.5,10.7,30.5,12,45.2,17.1,68.7,20.6,94.3,2,15.2,2.3,50.1.5,63.9-.9,6.3-.9,9.8-.3,10.4s1.2.6,1.4-.4c.2-.8,1.5-5,3-9.4,5.8-18,14-54.9,15.3-69.4.4-3.9,1-7.1,1.4-7.1.8,0,2.5,15.7,3.5,31a139.79,139.79,0,0,1-4.6,43.3c-1.7,6.3-2.9,12.3-2.5,13.3.6,1.5,1.1,1.3,4.3-1.7,2-1.9,7.7-8.9,12.8-15.7,22.1-29.5,32.5-53.3,37.1-85.2,1.9-13.4,1.4-47.3-.9-59.7-1.5-8.4-2.8-8.8,11.4,3.4,21.8,18.7,40.7,40.5,58.7,67.5,3.9,5.8,7.6,10.9,8.2,11.3,2,1.3,2.1-2.4.1-6.4a17.93,17.93,0,0,1-2.1-6.8c-.1-3.6-3.2-10.6-6.2-13.6a34.33,34.33,0,0,1-4.8-7.8c-9.3-20.5-22.5-40.6-41-62.4-4.2-5-9.4-11.4-11.6-14.3-2.5-3.4-4.4-5.1-5.4-4.8-8.6,2.8-28.5,8.4-28.9,8.1-.2-.3.2-.7,1-.9,27.8-9.9,56.3-21.4,76.9-31.2,54.1-25.7,94.5-54.1,125.7-88.4a96.6,96.6,0,0,1,7.3-7.2c2.7-2.3,3.4-4.9,1.2-4.7C1860.34,209.33,1849.94,214.33,1837.54,220.43Zm-193.1,123.2a12.89,12.89,0,0,1-3.4,1l-3,.6,3-1.4C1643.64,342.63,1645.64,342.43,1644.44,343.63Zm-23.2,75.8c-.3.8-.6.5-.6-.6s.2-1.7.5-1.3A2,2,0,0,1,1621.24,419.43Zm1,9.5c-.3,1-.5.2-.5-1.7s.2-2.7.5-1.8A10.28,10.28,0,0,1,1622.24,428.93Z" transform="translate(-50.7 15.16)"/><path class="cls-2" d="M840.54,241.13c0,4.1,5.2,18.1,11.5,30.9a212.17,212.17,0,0,0,22.4,36.7c8.8,11.5,28.5,30.7,40.6,39.5,1.1.8-1.7-2.4-6.2-7s-10.7-11.6-13.8-15.4c-11.7-14.4-28.5-41.8-37.8-61.6-4-8.5-14.8-25-16.3-25C840.74,239.23,840.54,240.13,840.54,241.13Z" transform="translate(-50.7 15.16)"/><path class="cls-2" d="M1073.44,247.33a119.16,119.16,0,0,0-10.6,17.9c-9.3,19.8-26.1,47.2-37.8,61.6-3.1,3.8-9.3,10.7-13.8,15.4s-7.3,7.8-6.2,7c12.1-8.8,31.8-28,40.6-39.5,12.5-16.3,27.2-43.7,31.9-59.2C1080.84,239.53,1079.94,238.83,1073.44,247.33Z" transform="translate(-50.7 15.16)"/><path class="cls-2" d="M504.54,253.83a98.12,98.12,0,0,0,4.9,8.7c2.7,4.5,6.1,10.3,7.5,13a85.52,85.52,0,0,0,8.3,11c3,3.4,6.2,7.5,7,9.1,1.9,3.6,16.1,24.9,31.2,46.6,6.3,9.1,13.3,19.2,15.6,22.5,42,61.2,71.1,97.6,103.4,129.4,8,7.9,13.2,13.4,11.4,12.2a18.65,18.65,0,0,1-3.8-3.1,2.72,2.72,0,0,0-2.5-.3c-2.7.7-25.5-6.7-41.5-13.4-32.5-13.6-62.2-30.2-84-46.6-4.8-3.7-6.2-4.3-7.3-3.3s-.8,2.8,1.2,9.7a152.29,152.29,0,0,0,22.2,45.6c2.5,3.5,4.4,6.3,4.1,6.3s-3.6-3.8-7.6-8.5c-12.4-14.9-24.2-43.6-22.5-54.5.5-3.3.2-3.8-6.1-9-16.2-13.2-37.7-41.2-43.7-56.8-1.2-3.1-2.2-4.2-3.8-4.2-4,0-3.8,2.7,2.2,24.5a181,181,0,0,0,31.2,62.9c2.9,3.7,2.9,3.8.5,2.6-7.1-3.7-24.8-14.6-27.1-16.8s-2.8-2.3-3.4-.8c-.9,2.5,11.4,18.1,23.9,30.3,11.4,11.1,25.8,21.2,38.4,26.9,4.3,2,9.7,4.5,11.9,5.5s4.6,1.9,5,1.8c2.7-.5,3.5.4,1,1.1-4,1.2-18.7-2-30.1-6.4-4.9-2-9.8-3.3-10.7-3-1.5.4-1.8-.1-1.8-3.1,0-2.3-.5-3.8-1.6-4.2-2.9-1.1-3.9,1.5-3.7,10.1.3,17.7,4.3,34.1,11.8,48.3,3.7,7,4.1,8.3,2.6,8.3-3.6,0-27.1-7-43.6-13-13.9-5.1-17.3-6-18.8-5s-3,.3-9.2-4.4c-4-3-11.2-9-16-13.3s-9.1-7.7-9.6-7.5-.9-.9-.9-2.3a8.63,8.63,0,0,0-2.4-5,10.18,10.18,0,0,1-2.8-4.2c-.6-3.3-3.3-2-3.6,1.7-.5,5.3,1.7,22.6,3.8,29.4,1.1,3.3,1.7,6.2,1.5,6.5s-.8-.5-1.1-1.5a34.69,34.69,0,0,0-4.9-6.4c-5.2-5.7-10.7-15.1-15.2-26-5.7-13.8-7.1-14.2-7.1-1.8.1,6.5.5,9,2.1,11.6s1.7,3.8.9,5.7c-1.3,2.8.4,12.7,6.7,38.8,2.6,10.6,3.8,17.8,3.5,19.7-.5,2.4.2,4.3,3.7,9.7,5.4,8.3,18.1,21.3,27.2,27.7,5.9,4.2,7,4.7,8.3,3.4s.9-2.5-2.1-10.1a198.69,198.69,0,0,1-9-31.2l-.7-4,3.2,4.3c2.8,3.9,11,10.2,13.3,10.2.6,0,.7-2,.3-4.8-1.9-12.6-2.2-15.2-2-15.2s3.4,4,7.3,9c19.2,24.3,37.3,39.1,62.4,51,14.5,6.8,15.5,7.2,16.2,6,.3-.5-2.1-6-5.4-12.2s-7.9-16.5-10.4-22.8c-4.5-11.4-10.4-32.6-9.3-33.7.3-.3,2.5.6,5,2,15.3,8.5,55.3,23.3,60,22.1,1.3-.3,2.7-.1,3,.5,1,1.5-3.6,1.4-10.9-.4-5.1-1.2-6.2-1.2-7.4,0-1.7,1.7,1.7,8.1,16.6,30.9,22,33.6,84.3,114,86.6,111.7.5-.5,3.1-11.6,5.8-24.6,5.4-26.5,4.3-24.2,18.2-40,7.6-8.5,35.8-34.8,36.6-34,.2.2-1.3,4.4-3.3,9.3-4.3,10.7-6.9,24.7-9.1,50-1.3,14.6-1.4,19.6-.5,25.4.6,4,1.2,11.3,1.4,16.1.2,5.9.8,9.3,1.7,10.2,2,2,3.1.8,5.6-6,8.6-23.5,22.4-53.5,32.4-70.2,13.7-23,46.3-67.8,49.4-67.8,1.2,0,15.8-12.3,25.2-21.3,5.4-5.2,5.7-5.3,22-9.1a215.59,215.59,0,0,1,33.4-5.6l6.6-.6.6,3.3c.3,1.8,2,11.4,3.7,21.3,11,63.8,23.3,111.9,35,137.1,2.1,4.5,3,7.8,2.8,10.2-.2,2,.2,3.7.7,3.7a4.79,4.79,0,0,1,2.3.9c.8.5,2.1.1,3.4-1.1a7.46,7.46,0,0,1,2.7-1.8c.3,0,.5-1,.3-2.2s1.1-5.2,2.8-8.8c11.7-25.1,24-73.3,35-137,1.7-9.9,3.4-19.5,3.7-21.3l.6-3.3,6.6.6a215.59,215.59,0,0,1,33.4,5.6c16.3,3.8,16.6,3.9,22,9.1,9.4,9,24,21.3,25.2,21.3,3.1,0,35.7,44.8,49.4,67.8,10,16.7,23.8,46.7,32.4,70.2,2.5,6.8,3.6,8,5.6,6,.9-.9,1.5-4.3,1.7-10.2.2-4.8.8-12.1,1.4-16.1.9-5.8.8-10.8-.5-25.4-2.2-25.3-4.8-39.3-9.1-50-2-4.9-3.5-9.1-3.3-9.3.8-.8,29,25.5,36.6,34,13.9,15.8,12.8,13.5,18.2,40,2.7,13,5.3,24.1,5.8,24.6,2.3,2.3,64.6-78.1,86.6-111.7,14.9-22.8,18.3-29.2,16.6-30.9-1.2-1.2-2.3-1.2-7.4,0-7.3,1.8-11.9,1.9-10.9.4.3-.6,1.7-.8,3-.5,4.7,1.2,44.7-13.6,60-22.1,2.5-1.4,4.7-2.3,5-2,1.1,1.1-4.8,22.3-9.3,33.7-2.5,6.3-7.2,16.6-10.4,22.8s-5.7,11.7-5.4,12.2c.7,1.2,1.7.8,16.2-6,25.1-11.9,43.2-26.7,62.4-51,3.9-5,7.2-9,7.3-9s-.1,2.6-2,15.2c-.4,2.8-.3,4.8.3,4.8,2.3,0,10.5-6.3,13.3-10.2l3.2-4.3-.7,4a198.69,198.69,0,0,1-9,31.2c-3,7.6-3.3,8.9-2.1,10.1s2.4.8,8.3-3.4c9.1-6.4,21.8-19.4,27.2-27.7,3.5-5.4,4.2-7.3,3.7-9.7-.3-1.9.9-9.1,3.5-19.7,6.3-26.1,8-36,6.7-38.8-.8-1.9-.7-3,.9-5.7s2-5.1,2.1-11.6c0-12.4-1.4-12-7.1,1.8-4.5,10.9-10,20.3-15.2,26a34.69,34.69,0,0,0-4.9,6.4c-.3,1-.8,1.7-1.1,1.5s.4-3.2,1.5-6.5c2.1-6.8,4.3-24.1,3.8-29.4-.3-3.7-3-5-3.6-1.7a10.18,10.18,0,0,1-2.8,4.2,8.63,8.63,0,0,0-2.4,5c0,1.4-.4,2.4-.9,2.3s-4.8,3.2-9.6,7.5-12,10.3-16,13.3c-6.2,4.7-7.6,5.3-9.2,4.4s-4.9-.1-18.8,5c-16.5,6-40,13-43.6,13-1.5,0-1.1-1.3,2.6-8.3,7.5-14.2,11.5-30.6,11.8-48.3.2-8.6-.8-11.2-3.7-10.1-1.1.4-1.6,1.9-1.6,4.2,0,3-.3,3.5-1.8,3.1-.9-.3-5.8,1-10.7,3-11.4,4.4-26.1,7.6-30.1,6.4-2.5-.7-1.7-1.6,1-1.1.4.1,2.7-.7,5-1.8s7.6-3.5,11.9-5.5c12.6-5.7,27-15.8,38.4-26.9,12.5-12.2,24.8-27.8,23.9-30.3-.6-1.5-1-1.4-3.4.8s-20,13.1-27.1,16.8c-2.4,1.2-2.4,1.1.5-2.6a181,181,0,0,0,31.2-62.9c6-21.8,6.2-24.5,2.2-24.5-1.6,0-2.6,1.1-3.8,4.2-6,15.6-27.5,43.6-43.7,56.8-6.3,5.2-6.6,5.7-6.1,9,1.7,10.9-10.1,39.6-22.5,54.5-4,4.7-7.4,8.5-7.6,8.5s1.6-2.8,4.1-6.3a152.29,152.29,0,0,0,22.2-45.6c2-6.9,2.2-8.7,1.2-9.7s-2.5-.4-7.3,3.3c-21.8,16.4-51.5,33-84,46.6-16,6.7-38.8,14.1-41.5,13.4a2.72,2.72,0,0,0-2.5.3,18.65,18.65,0,0,1-3.8,3.1c-1.8,1.2,3.4-4.3,11.4-12.2,32.3-31.8,61.4-68.2,103.4-129.4,2.3-3.3,9.3-13.4,15.6-22.5,15.1-21.7,29.3-43,31.2-46.6.8-1.6,4-5.7,7-9.1a85.52,85.52,0,0,0,8.3-11c1.4-2.7,4.8-8.5,7.5-13a98.12,98.12,0,0,0,4.9-8.7c0-1.9-2.5.1-5.6,4.4-1.9,2.7-4,4.8-4.6,4.7s-6.7,7.4-13.6,16.8c-33.3,45.4-57.4,73.1-84.8,97.6-14.1,12.6-33.4,28.4-33.4,27.3,0-.3,2-6.9,4.5-14.5a295.46,295.46,0,0,0,11-48.9c1-6.3,2.1-12.5,2.6-13.7,1-2.6-.4-3.9-2-1.9-.6.8-2.3,5.2-3.6,9.8-4.6,15.9-15.7,41.4-26.1,60-6.9,12.5-22.3,36.1-30.6,47.2-10.2,13.4-43.2,52.6-44.5,52.6-.2,0,3.2-5.3,7.5-11.8s8.2-12.2,8.6-12.9-6.2,5.6-14.6,14.1c-17.3,17.3-29.2,27.1-45.8,37.8-19.5,12.6-19.7,12.5-4.8-2,16.1-15.7,26.4-27.3,46.9-52.7,22.6-28,22.2-27.3,9.9-17.9-14.3,11-49.5,34.2-50.4,33.3-1.4-1.5,15.4-54.9,22.3-70.9l4.1-9.5-4.7,5c-6.4,6.9-27.8,35.8-40.7,55-5.9,8.8-11,16.2-11.2,16.4a65.53,65.53,0,0,1,2.2-7.8c5-16.2,10.6-31.8,15-41.1l4.4-9.5-4.6,5c-12.5,13.7-28.2,42.6-39.3,72.3l-6.8,18.3-5.1-11.3c-7.8-17.3-15.9-37.6-17.8-44.8-2.4-9.1-3.5-10-6.8-5.8-3.4,4.6-7.6,14-11.9,26.8-3,8.9-4.9,16.2-9.6,36.4l-.7,3-2.3-4c-4.1-6.9-9.2-20.5-12.5-33.4-2.2-8.8-3.6-12.5-4.6-12.5-8.9,0-30.3,105.4-35,172.5-1.2,17.4-3,30.7-6.1,44.3-2.4,10.9-5.8,22.8-6.9,24.2a25.08,25.08,0,0,0-2.1,5.5l-1.2,4.5-1.4-4.5a52.86,52.86,0,0,0-2.7-7.5c-5.2-11.3-10.7-40.8-12.6-67.5-4.7-67.1-26.1-172.5-35-172.5-1,0-2.4,3.7-4.6,12.5-3.3,12.9-8.4,26.5-12.5,33.4l-2.3,4-.7-3c-4.7-20.2-6.6-27.5-9.6-36.4-4.3-12.8-8.5-22.2-11.9-26.8-3.3-4.2-4.4-3.3-6.8,5.8-1.9,7.2-10,27.5-17.8,44.8l-5.1,11.3-6.8-18.3c-11.1-29.7-26.8-58.6-39.3-72.3l-4.6-5,4.4,9.5c4.4,9.3,10,24.9,15,41.1a65.53,65.53,0,0,1,2.2,7.8c-.2-.2-5.3-7.6-11.2-16.4-12.9-19.2-34.3-48.1-40.7-55l-4.7-5,4.1,9.5c6.9,16,23.7,69.4,22.3,70.9-.9.9-36.1-22.3-50.4-33.3-12.3-9.4-12.7-10.1,9.9,17.9,20.5,25.4,30.8,37,46.9,52.7,14.9,14.5,14.7,14.6-4.8,2-16.6-10.7-28.5-20.5-45.8-37.8-8.4-8.5-15-14.8-14.6-14.1s4.3,6.5,8.6,12.9,7.7,11.8,7.5,11.8c-1.3,0-34.3-39.2-44.5-52.6-8.3-11.1-23.7-34.7-30.6-47.2-10.4-18.6-21.5-44.1-26.1-60-1.3-4.6-3-9-3.6-9.8-1.6-2-3-.7-2,1.9.5,1.2,1.6,7.4,2.6,13.7a295.46,295.46,0,0,0,11,48.9c2.5,7.6,4.5,14.2,4.5,14.5,0,1.1-19.3-14.7-33.4-27.3-27.4-24.5-51.5-52.2-84.8-97.6-6.9-9.4-13-16.9-13.6-16.8s-2.7-2-4.6-4.7C507,253.93,504.54,251.93,504.54,253.83Zm38.6,248.6c2.3,7.5,25.5,40.9,40.1,57.8,5.4,6.2,11.1,13,12.7,14.9l3,3.6-3-2.5c-16.9-14.4-43.9-48.4-50.6-63.8-1.1-2.6-2.9-6.6-3.9-8.9a24.65,24.65,0,0,1-1.9-4.9C539.54,497.33,542.44,500.43,543.14,502.43Zm835.6,2c-1.1,2.3-2.9,6.4-4,9-6.7,15.4-33.7,49.4-50.6,63.8l-3,2.5,3-3.6c1.6-1.9,7.3-8.7,12.7-14.9s13.7-16.8,18.4-23.4c8.3-11.6,21.3-32,21.3-33.5,0-1.1,3.2-5.3,3.7-4.8C1380.44,499.83,1379.84,502,1378.74,504.43Zm-937.4,31.3c2.9,2.2,5.6,4,6,4,1.5.1,4.6,2.4,4,3-1.8,1.8-16.8-8.8-22.3-15.9l-3.9-5.1,5.4,5C433.54,529.53,438.44,533.53,441.34,535.73Zm1049.5-7.7c-5.4,7-20.3,17.5-22.1,15.7-.6-.6,2.5-2.9,4-3,1.2,0,14.2-10.2,17.7-13.9C1495.24,521.83,1495.34,522.33,1490.84,528Zm-1036.6,10.4c-.3.8-.6.5-.6-.6s.2-1.7.5-1.3A2,2,0,0,1,454.24,538.43Zm1012,1c-.3.8-.6.5-.6-.6s.2-1.7.5-1.3A2,2,0,0,1,1466.24,539.43Zm-960.6,11.5c3.6,2.4,7.2,4.3,8,4.3s4.4,1.7,8,3.8a92.55,92.55,0,0,0,8.3,4.5c.9.4,1.5,1.1,1.1,1.7s-3.5-.5-7.6-2.6c-7.7-3.8-27.2-15.3-30.4-17.8C489.24,541.83,498.74,546.43,505.64,550.93Zm921.4-5.1c-3.3,2.6-22.9,14.1-30.4,17.8-4.1,2.1-7.2,3.2-7.6,2.6s.2-1.3,1.1-1.7a92.55,92.55,0,0,0,8.3-4.5c3.6-2.1,7.3-3.8,8.1-3.8s4-1.7,7-3.7c5-3.4,13.8-8.2,15-8.2C1428.84,544.33,1428.14,545,1427,545.83Z" transform="translate(-50.7 15.16)"/><path class="cls-2" d="M370.24,548.93c-.3.5-.5,10.9-.4,23.1.1,13-.2,22.3-.7,22.5-1.2.4,6.7,14.9,13.1,24.2a63.05,63.05,0,0,0,10.3,11.3c3,2.4,6.3,5,7.3,5.8,1.3,1.1,1.7,1.1,1.7.1a3.6,3.6,0,0,0-.9-2.2c-1.6-1.8-7.1-20.1-9.1-30.3-1.1-5.6-2.3-14.1-2.7-18.8-.5-6.7-1-8.8-2.2-9.1-1.6-.4-10.8-16-13.1-22.3C371.94,549,370.94,547.73,370.24,548.93Z" transform="translate(-50.7 15.16)"/><path class="cls-2" d="M1547,552.83a32.94,32.94,0,0,0-1.5,4.2c0,1.8-10.8,19.1-12.1,19.5s-1.7,2.4-2.2,9.1c-.4,4.7-1.6,13.2-2.7,18.8-2,10.2-7.5,28.5-9.1,30.3a3.6,3.6,0,0,0-.9,2.2c0,1,.4,1,1.8-.1.9-.8,4.2-3.4,7.2-5.8a63.05,63.05,0,0,0,10.3-11.3c6.4-9.3,14.3-23.8,13.1-24.2-.5-.2-.8-9.6-.7-22.8.1-12.6-.2-22.7-.7-23S1547.94,550.83,1547,552.83Z" transform="translate(-50.7 15.16)"/><path class="cls-2" d="M186.24,597.13c-21.3,28.4-53.8,64.9-71.1,80.1-14.1,12.3-25.4,20-39.8,27.5-7.1,3.7-12.8,6.9-12.8,7.4a3.61,3.61,0,0,0,1.1,1.8c.8.8.8,1.3,0,1.7a3.57,3.57,0,0,0-1.1,2.7c0,2.8,3.6,2.4,6.4-.6,1.4-1.4,8.1-4.8,16.1-8.1,46.5-18.7,76.6-42.3,96.5-75.4,5.4-8.9,6.7-9.3,2.4-.7-5.3,10.4-21.1,30.8-28.9,37.2a30.58,30.58,0,0,0-5.5,5.5c-.7,1.2-.1,7,2,19.1,3.6,21.5,5.6,43.3,7.5,81.7,1,20.4,1.2,32,.6,37.2-.5,4.1-.8,7.8-.5,8.2s-.2,2.1-1.1,3.7-1.1,3.2-.6,3.5c1.7,1.1,14.6-20.3,26.4-44a402.78,402.78,0,0,0,30.2-78.9c4-14.8,5.3-25.1,3.6-28.3-1.1-2.1-1.4-2-10.4,4.9-7.5,5.9-20.5,13.5-21.3,12.6-.1-.1,1.8-7.9,4.1-17.2s5.8-25.6,7.6-36c2.8-16.2,3.2-21.4,3.2-35.5,0-17.1-.8-22.2-3.5-22.6C196.34,584.53,192.24,589.13,186.24,597.13Z" transform="translate(-50.7 15.16)"/><path class="cls-2" d="M1721,586.13a70.22,70.22,0,0,0-1.6,8.2c-2.5,15.8,1.9,51.4,10.6,85.4,2.3,9.3,4.2,17.1,4.1,17.2-.8.9-13.8-6.7-21.3-12.6-9-6.9-9.3-7-10.4-4.9-1.7,3.2-.4,13.5,3.6,28.3a402.78,402.78,0,0,0,30.2,78.9c11.8,23.7,24.7,45.1,26.4,44,.5-.3.2-1.9-.6-3.5s-1.4-3.3-1.1-3.7,0-4.1-.5-8.2c-.6-5.2-.4-16.8.6-37.2,1.9-38.4,3.9-60.2,7.5-81.7,2.1-12.1,2.7-17.9,2-19.1a30.58,30.58,0,0,0-5.5-5.5c-7.8-6.4-23.6-26.8-28.9-37.2-4.3-8.6-3-8.2,2.4.7,19.9,33.1,50,56.7,96.5,75.4,8,3.3,14.7,6.7,16.1,8.1,2.7,3,6.4,3.4,6.4.7a4.69,4.69,0,0,0-1.1-2.9c-.8-.8-.8-1.3,0-1.7a2.36,2.36,0,0,0,1.1-1.6c0-.5-5.7-3.8-12.7-7.5-22-11.3-40.2-25.8-62.6-50-15.8-17-35.6-40.6-48.3-57.4C1725.34,586.93,1722.34,584,1721,586.13Z" transform="translate(-50.7 15.16)"/><path class="cls-2" d="M266.54,616.73c-1.3,1.5-.5,3.9,1,3s6.1,7.3,15.1,27.6c31.5,71.1,67.3,124,116.5,171.8,30.5,29.7,61.3,52,95.7,69.3,11.2,5.6,29.2,13.8,30.2,13.8,1.7,0-.3-7.1-5.4-18.9-3.3-7.5-7.6-17.8-9.5-23s-4.1-10-4.7-10.7-3-1.5-5.4-1.9c-5.1-.7-23.5-9.8-37-18.3-34.4-21.4-75.7-58.4-118.6-106.2-18.5-20.6-30.3-35.5-39.4-49.8-3.2-5-6.4-9.2-7.1-9.2s-4.6-7.5-8.8-16.8c-8.7-18.8-11.4-23.8-15.8-28.7C270,614.93,268.44,614.43,266.54,616.73Z" transform="translate(-50.7 15.16)"/><path class="cls-2" d="M1646.74,619.73c-4.4,4.9-7.1,9.9-15.8,28.7-4.2,9.3-8.2,16.8-8.8,16.8s-3.9,4.2-7.1,9.2c-20.4,31.9-72.7,88.5-115,124.4-10.9,9.2-32.1,24.8-43,31.6-13.5,8.5-31.9,17.6-37,18.3-2.4.4-4.9,1.3-5.4,1.9s-2.7,5.5-4.7,10.7-6.2,15.5-9.5,23c-5.1,11.8-7.1,18.9-5.4,18.9,1,0,19-8.2,30.2-13.8,34.4-17.3,65.2-39.6,95.7-69.3,49.2-47.8,85-100.7,116.5-171.8,9-20.3,13.5-28.6,15.1-27.6s2.3-1.5,1-3C1651.64,615.43,1650,615.93,1646.74,619.73Z" transform="translate(-50.7 15.16)"/><path class="cls-2" d="M472.24,740.83c-.3.4.1,2,.9,3.6s1.3,3.7,1,4.5c-1.2,2.9,1.3,9.2,4.2,10.7,1.5.8,4.1,3.4,5.9,5.8,8.8,12.1,34.9,37.4,37.7,36.5.6-.2,1.5-5.1,2-11.3.7-8.1,1.3-11.2,2.5-12.1,1.4-1,.8-2.3-5-11-3.7-5.4-7-11.2-7.4-13-.7-3.6-3.1-6.1-4.5-4.7-.8.9,1.2,26.5,2.6,31.9.3,1.4.3,2.5,0,2.5s-7.2-8-15.2-17.8c-14.8-17.8-22.3-26.2-23.4-26.2A2.55,2.55,0,0,0,472.24,740.83Z" transform="translate(-50.7 15.16)"/><path class="cls-2" d="M1441.94,745.43c-2.3,2.4-10.7,12.3-18.8,22s-14.9,17.8-15.2,17.8-.3-1.1,0-2.5c1.4-5.4,3.4-31,2.6-31.9-1.4-1.4-3.8,1.1-4.5,4.7-.4,1.8-3.7,7.6-7.4,13-5.8,8.7-6.4,10-5,11,1.2.9,1.8,4,2.5,12.1.5,6.2,1.4,11.1,2,11.3,2.8.9,28.9-24.4,37.7-36.5,1.8-2.4,4.4-5,5.9-5.8,2.9-1.5,5.4-7.8,4.2-10.7-.3-.8.1-2.9,1-4.5,1.4-2.7,1.3-4.2-.4-4.2C1446.24,741.23,1444.14,743.13,1441.94,745.43Z" transform="translate(-50.7 15.16)"/><path class="cls-2" d="M476.84,764.73c-1.2,2,1.1,12.3,5.4,24.2,2,5.8,2.3,7.6,1.4,8.7s-.7,2.2,1.2,5.3c7.2,11.4,24.2,29.4,34.4,36.4a96.19,96.19,0,0,0,13,7c4.9,2.2,10,4.7,11.5,5.4s3,1.1,3.2.7-1.8-4.2-4.5-8.5c-4.7-7.2-11.2-20.8-10.4-21.6.2-.2,1.7.6,3.4,1.8,6.2,4.4,18.1,9.2,29,11.7s14.9,2.6,13.6.4a3.57,3.57,0,0,0-2.3-1.1c-1.6-.1-10-8.9-24.5-25.7-6.2-7.1-15.8-20.2-19.2-26.2-3.9-6.7-4.9-4.9-6,10.8l-1,14.4-4.1-3c-11.7-8.5-30.2-26.4-40-38.7C478.14,763.23,477.74,763,476.84,764.73Z" transform="translate(-50.7 15.16)"/><path class="cls-2" d="M1437.24,769.93c-9.2,11.5-23.9,25.7-37.2,35.8l-5,3.8-1-14.4c-1.1-15.8-2.1-17.6-6-10.9-3.4,6-13,19.1-19.2,26.2-14.5,16.8-22.9,25.6-24.5,25.7a3.57,3.57,0,0,0-2.3,1.1c-1.3,2.2,2.7,2,13.6-.4s22.8-7.3,29-11.7c1.7-1.2,3.2-2,3.4-1.8.8.8-5.7,14.4-10.4,21.6-2.7,4.3-4.8,8.1-4.5,8.5s1.7.1,3.2-.7,6.6-3.2,11.5-5.4a96.19,96.19,0,0,0,13-7c10.2-7,27.2-25,34.4-36.4,1.9-3.1,2.2-4.1,1.2-5.3s-.6-2.9,1.4-8.7c4.5-12.4,6.7-22.4,5.3-24.2C1442.14,764.33,1441.34,764.83,1437.24,769.93Z" transform="translate(-50.7 15.16)"/><path class="cls-2" d="M605.84,788.33c-2.5,2.5,10.9,32.8,19.7,44.4,2.8,3.7,4.9,6.9,4.7,7.1-.6.6-18.5-11.9-28.2-19.7-4.9-4-15.1-12.7-22.5-19.3-14.5-13.1-14.5-13.1-3.4,3.9,9,13.8,22.8,27.9,35.8,36.6l6.1,4.2-6.8-.7a77.57,77.57,0,0,1-12.9-2.6c-5.8-1.8-7.8-1.8-7.8-.1,0,1.5,10.5,8.6,19.4,13.1,5,2.6,14.7,7.7,21.6,11.5s16.6,8.3,21.5,10.2,9.4,4.1,9.8,4.9c1,1.7,5.3,1.9,6.3.2a13.9,13.9,0,0,0,.8-5.2c.1-3.6-.2-4.1-2.1-4.1-1.4,0-3.3-1.4-4.9-3.5-3.4-4.6-11.1-20.3-12.9-26.4-1.7-5.5-1.9-8.4-.4-4.7.7,1.9,1.2,2.2,2.1,1.3s.8-3.7-.3-11.4l-1.4-10.2-4.2-2.5c-8.2-5-33.8-23.1-36.3-25.6C607.64,787.83,606.74,787.43,605.84,788.33Z" transform="translate(-50.7 15.16)"/><path class="cls-2" d="M1310.44,790.73c-2.3,2.5-27.6,20.3-36.2,25.6l-4.2,2.5-1.4,10.2c-1.1,7.7-1.2,10.5-.3,11.4s1.4.6,2.1-1.3c1.5-3.7,1.3-.8-.4,4.7-1.8,6.1-9.5,21.8-12.9,26.4-1.6,2.1-3.5,3.5-4.9,3.5-1.9,0-2.2.5-2.1,4.1a13.9,13.9,0,0,0,.8,5.2c1,1.7,5.3,1.5,6.3-.2.4-.8,4.9-3,9.8-4.9a231.23,231.23,0,0,0,21.5-10.2c6.9-3.8,16.6-8.9,21.6-11.5,8.9-4.5,19.4-11.6,19.4-13.1,0-1.7-2-1.7-7.8.1a77.57,77.57,0,0,1-12.9,2.6l-6.8.7,6.1-4.2c13-8.7,26.8-22.8,35.8-36.6,11.1-17,11.1-17-3.4-3.9-7.4,6.6-17.5,15.3-22.5,19.3-9.7,7.8-27.6,20.3-28.2,19.7-.2-.2,1.9-3.4,4.7-7.1,5.5-7.2,14.2-24.4,18.4-36.2,2-5.7,2.2-7.3,1.2-8.2S1312.24,788.93,1310.44,790.73Z" transform="translate(-50.7 15.16)"/><path class="cls-2" d="M653.84,825.33c-1.6,1.6,1.5,10.2,9.7,26.7,15,30.2,34.1,53.5,56.2,68.3,3.4,2.3,7.7,5.4,9.4,6.9a49.35,49.35,0,0,0,8.9,5.5c5.1,2.6,5.8,2.7,7.2,1.2s1.3-1.9-1.2-4.9a25.43,25.43,0,0,0-4.1-4.1,2.71,2.71,0,0,1-1.4-2.2c0-.7-1.8-5.1-3.9-9.7-8.6-18.3-10-21.8-14-34.4-2.2-7.2-4.4-15.2-4.7-17.7l-.6-4.5-10.3-5a428.59,428.59,0,0,1-39.3-22.3C658.14,824.13,655.74,823.43,653.84,825.33Z" transform="translate(-50.7 15.16)"/><path class="cls-2" d="M1254.34,830.13a428.59,428.59,0,0,1-39.3,22.3l-10.3,5-.6,4.5c-.3,2.5-2.5,10.5-4.7,17.7-4,12.6-5.4,16.1-14,34.4-2.1,4.6-3.9,9-3.9,9.7a2.71,2.71,0,0,1-1.4,2.2,25.43,25.43,0,0,0-4.1,4.1c-2.5,3-2.7,3.5-1.2,4.9s2.1,1.4,7.2-1.2a49.35,49.35,0,0,0,8.9-5.5c1.7-1.5,6-4.6,9.4-6.9,22.1-14.8,41.2-38.1,56.2-68.3,8.2-16.5,11.3-25.1,9.7-26.7C1264.34,824.43,1261.94,825.13,1254.34,830.13Z" transform="translate(-50.7 15.16)"/><path class="cls-2" d="M232.14,870.33c-.8,1.9-3.4,8.3-5.7,14.4-8.5,22.1-26.3,54.6-40,72.8-8.8,11.7-17.2,19.8-35.9,34.7-13.9,11.1-16.2,13.6-13.5,14.7,5.1,1.9,32-17.9,48.4-35.5s23.9-27.3,39.6-50.7c5.9-8.8,10.9-16.2,11.1-16.4s1.1.2,1.9.9c1.3,1.1,1.9,1.1,3.2-.2s1.4-2.5.3-8.9c-1.6-9.7-5.9-27.2-7-28.3C234,867.33,233,868.33,232.14,870.33Z" transform="translate(-50.7 15.16)"/><path class="cls-2" d="M1685.24,868.83c-.9,1.6-5.4,20.4-6.7,28.3-1.1,6.4-1,7.5.3,8.9s1.9,1.3,3.2.2c.8-.7,1.7-1.1,1.9-.9s5.2,7.6,11.1,16.4c15.7,23.4,23.3,33,39.6,50.7s43.3,37.4,48.4,35.5c2.7-1.1.4-3.6-13.5-14.7-25.1-20-35.9-32-50.1-55.7-9.2-15.5-22.8-43-27.3-55.6C1688,870.63,1686.24,867.33,1685.24,868.83Z" transform="translate(-50.7 15.16)"/><path class="cls-2" d="M296.94,943.43c-4.1,3.3-8.2,7-8.9,8.2-1.2,1.8-1.3,6.1-.6,25.3.5,12.8,1.2,23.7,1.6,24.3,1.1,1.7,5.2-2.6,9-9.5,7.5-13.3,14.6-50.4,10.3-53.2C305.64,936.93,304.24,937.53,296.94,943.43Z" transform="translate(-50.7 15.16)"/><path class="cls-2" d="M1611.64,939.53c-4,4,3,40,10.4,53.2,3.8,6.9,7.9,11.2,9,9.5.4-.6,1.1-11.5,1.6-24.3.7-18.9.6-23.6-.5-25.2-2-3-15.1-13.5-17.4-14A4,4,0,0,0,1611.64,939.53Z" transform="translate(-50.7 15.16)"/><path class="cls-2" d="M597.24,939.83c-1.6,1.7.1,15.1,2.8,21.7a3.43,3.43,0,0,1-.4,3.1c-.8,1-.7,2.2.4,4.9,1.3,3.1,1.3,3.7,0,4.7-1.6,1.4-2.3,1.1-17.5-7.5-4.7-2.6-11.3-6.3-14.7-8.2a55.06,55.06,0,0,1-10-7.3c-3.9-4.2-6.5-4.1-4.2.1,2.7,5.3,13.8,18.9,21.7,26.6,15.6,15.5,33.3,24.9,51.7,27.4,4.7.6,8.8.9,9.1.6s-1.2-2.8-3.2-5.7c-4.6-6.8-9.5-15-8.8-15a80.22,80.22,0,0,1,8.2,5.8c14.9,11.3,34.4,25.3,34.8,25,.8-.8-4.7-17-6.8-20-4.2-6-5-6.8-6.2-5.9-1.5,1.2-7.2-3.6-32.8-27.6-11.9-11.1-19.8-19.3-20-20.6C601,939.73,598.54,938.53,597.24,939.83Z" transform="translate(-50.7 15.16)"/><path class="cls-2" d="M1319.24,940.83a4,4,0,0,0-.7,2.4c0,1-8.9,10.1-19.7,20.3-25.7,24-31.4,28.8-32.9,27.6-1.2-.9-2-.1-6.2,5.9-2.1,3-7.6,19.2-6.8,20,.4.3,19.9-13.7,34.8-25a80.22,80.22,0,0,1,8.2-5.8c.7,0-4.2,8.2-8.8,15-2,2.9-3.4,5.5-3.2,5.7s4.4,0,9.1-.6c18.4-2.5,36.1-11.9,51.7-27.4,7.9-7.7,19-21.3,21.7-26.6,2.3-4.2-.3-4.3-4.2-.1a55.06,55.06,0,0,1-10,7.3c-3.4,1.9-10,5.6-14.7,8.2-15.2,8.6-15.9,8.9-17.5,7.5-1.3-1-1.3-1.6,0-4.7,1.1-2.7,1.2-3.9.4-4.9s-.8-2.2-.1-4.1c1.8-4.8,3.4-13.6,3-17.3C1323,940.93,1320.94,939.13,1319.24,940.83Z" transform="translate(-50.7 15.16)"/><path class="cls-2" d="M697.94,959.63c-.8,2.1,1.2,10.4,4.8,19.8a40.66,40.66,0,0,0,7.4,12.8c4.5,4.9,7.1,5.8,5.9,1.9-.7-2.2.7-2.5,2.4-.5.8,1,.8,2.1.1,4a20.54,20.54,0,0,0-1,5.4,15.12,15.12,0,0,1-1.5,5.6c-1.5,2.8-1.4,3.1,1.2,5.9,5,5.2,21.9,17.4,28.9,20.8a73,73,0,0,1,10,5.6c3.4,2.6,8.5,3.9,11,2.9,1.5-.6,1.4-.9-.6-3.1-1.3-1.4-2-2.5-1.6-2.5s.2-1-.6-2.3a30.5,30.5,0,0,1-2.8-6.2,14.94,14.94,0,0,0-2.8-5.3c-6.7-5.3-26.6-24.2-30.7-29.1-2.8-3.5-5.6-5.9-6.3-5.6s-1.1.1-.8-.4c.6-.9-13.1-19.5-14.8-19.9-.6-.1-2-2.6-3.1-5.4C700.94,958.63,698.94,956.93,697.94,959.63Z" transform="translate(-50.7 15.16)"/><path class="cls-2" d="M1217.54,963.43a23.7,23.7,0,0,0-2,5.5,1.79,1.79,0,0,1-1.4,1.5c-1.8.4-15.7,18.9-15,19.9.3.5-.1.7-.8.4s-3.5,2.1-6.3,5.6c-4.1,4.9-24,23.8-30.7,29.1a14.94,14.94,0,0,0-2.8,5.3,30.5,30.5,0,0,1-2.8,6.2c-.8,1.3-1.1,2.3-.6,2.3s-.3,1.1-1.6,2.5c-2,2.2-2.1,2.5-.6,3.1,2.5,1,7.6-.3,11-2.9a73,73,0,0,1,10-5.6c7-3.4,23.9-15.6,28.9-20.8,2.6-2.8,2.7-3.1,1.2-5.9a15.12,15.12,0,0,1-1.5-5.6,20.54,20.54,0,0,0-1-5.4c-.7-1.9-.7-3,.1-4,1.7-2,3.1-1.7,2.4.5-1.2,3.9,1.4,3,5.9-1.9,4.6-5.2,9.1-15.2,11.6-25.8C1223.54,958.73,1220.84,956,1217.54,963.43Z" transform="translate(-50.7 15.16)"/><path class="cls-2" d="M365.14,961.93c-.3.3-.6,3.6-.6,7.3s-.5,7.1-1.1,7.7-1.4,3.7-1.9,7.1a43,43,0,0,1-2.3,9.4c-.9,1.8-3.2,7.1-5.2,11.8s-5,10.8-6.6,13.6l-2.9,5.1,1.6,10.9c2.5,17.8,4.2,39.7,3.2,42.3-1.5,4.1-2,14.1-.8,14.1,2.8,0,14-31.3,16.4-46,4.4-27.1,6.5-69.8,3.8-78.7C367.44,962.23,366.34,960.73,365.14,961.93Z" transform="translate(-50.7 15.16)"/><path class="cls-2" d="M1552.64,964.13c-2.2,4.1-3.3,16.7-2.7,29.6.9,17,3.2,40.6,5.2,52.5,2.4,14.7,13.6,46,16.4,46,1.2,0,.7-10-.8-14.1-1-2.6.7-24.5,3.2-42.3l1.6-10.9-2.9-5.1c-1.6-2.8-4.6-8.9-6.6-13.6s-4.3-10-5.2-11.8a43,43,0,0,1-2.3-9.4c-.5-3.4-1.4-6.6-1.9-7.1s-1.1-4.1-1.1-7.8C1555.54,963.13,1554.44,960.73,1552.64,964.13Z" transform="translate(-50.7 15.16)"/><path class="cls-2" d="M441.94,1024.43a136.16,136.16,0,0,0-1.8,23.3c-.1,11.9.2,15.1,2.2,21.2,1.2,4,2.6,7.5,3.1,7.8,1.5.9,2.2-1.1,1.3-3.6-1.8-4.7,4.4-23.7,9.1-28.2,2.8-2.6,2.9-2.9,1.6-6-2.8-6.4-12.1-23.7-12.9-23.7C444.14,1015.23,442.94,1019.43,441.94,1024.43Z" transform="translate(-50.7 15.16)"/><path class="cls-2" d="M1469.34,1026.43c-8.6,16.7-8.5,16.3-5.1,19.5,4.7,4.5,10.9,23.5,9.1,28.2-.9,2.5-.2,4.5,1.3,3.6.5-.3,1.9-3.8,3.1-7.8,2-6.1,2.3-9.3,2.2-21.2-.1-13.7-2.6-32.5-4.4-32.5C1475,1016.23,1472.34,1020.83,1469.34,1026.43Z" transform="translate(-50.7 15.16)"/><path class="cls-2" d="M456.54,1046.43a15.53,15.53,0,0,0-2,4.2,6.34,6.34,0,0,1-1.6,2.8c-1.6,1.7-1.5,2.3,1.1,10,15.5,46.2,41.2,79.7,74.5,97.4,3,1.6,6.2,3.8,7.1,4.9,1.3,1.5,2,1.7,2.9.9s.8-1.9-.3-4c-2.7-5.2-7.7-23.5-8.8-32.3-1.5-11-1.6-11.4-3.5-10.7-5.1,2-34.9-28.3-51.5-52.4-2.4-3.6-6.7-10.2-9.4-14.8s-5.2-8.5-5.7-8.8S457.64,1044.63,456.54,1046.43Z" transform="translate(-50.7 15.16)"/><path class="cls-2" d="M1459.24,1046.43c-.8,1.3-2.9,4.8-4.7,7.8a267.6,267.6,0,0,1-39.7,50.7c-11.5,11.4-18.4,16.6-20.7,15.7-1.9-.7-2-.3-3.5,10.7-1.1,8.8-6.1,27.1-8.8,32.3-1.1,2.1-1.2,3.1-.3,4s1.6.6,2.9-.9c.9-1.1,4.1-3.3,7.1-4.9,16.1-8.5,32.7-22.8,44.1-37.9,11.8-15.7,23.1-37.8,30.4-59.5,2.5-7.3,2.6-8.4,1.3-10a19.89,19.89,0,0,1-2.7-4.9C1462.64,1044.63,1460.94,1043.63,1459.24,1046.43Z" transform="translate(-50.7 15.16)"/><path class="cls-2" d="M413.54,1050.63c0,4.9,4.9,18.9,9.5,27.2,4,7.2,17.2,21.4,19.7,21,3-.4,3.3-1.6,2.8-10.3-.5-8-.7-8.8-2.5-8.6-5.6.5-14.5-9.2-23.5-25.6C415.34,1046.63,413.54,1045.53,413.54,1050.63Z" transform="translate(-50.7 15.16)"/><path class="cls-2" d="M1503.34,1050.43c-.8,1.3-2.5,4.2-3.7,6.6-3.6,7.1-13,19.5-16.3,21.6a14.81,14.81,0,0,1-5.7,2.1c-2.6,0-2.6.1-3.1,8.8-.7,12.9,1.2,13.5,11.4,3.4,8.3-8.2,13.6-17,17.8-29.4C1507.64,1051.83,1507.34,1044.23,1503.34,1050.43Z" transform="translate(-50.7 15.16)"/><path class="cls-2" d="M559.14,1091.13a92.77,92.77,0,0,0-2.2,11.2c-.9,5.7-2.1,10.9-2.6,11.6-1.2,1.5,12.4,28.4,22.1,43.8,20.8,33,48.4,60.1,73.6,72.4,11.7,5.8,31.4,12.7,32.5,11.4.5-.4-.2-3.4-1.6-6.5-3-7.2-7.4-24-7.4-28.5,0-4.8-1.7-7.8-3.5-6.3s-16.4-6.2-29.5-15.3c-35.1-24.5-57.2-49.3-73.6-82.4C561.34,1091.23,560.14,1089.43,559.14,1091.13Z" transform="translate(-50.7 15.16)"/><path class="cls-2" d="M1358.94,1092.43c-.5.7-3.4,6.3-6.4,12.4-16.5,32.7-38.3,56.9-73,81.1-13.1,9.1-27.8,16.7-29.5,15.3s-3.5,1.5-3.5,6.3c0,4.5-4.4,21.3-7.4,28.5-1.4,3.1-2.1,6.1-1.6,6.5,1.1,1.3,20.8-5.6,32.5-11.4,25.2-12.3,52.8-39.4,73.6-72.4,9.7-15.4,23.3-42.3,22.1-43.8-.5-.7-1.7-5.9-2.6-11.7C1361.44,1092.63,1360.44,1090,1358.94,1092.43Z" transform="translate(-50.7 15.16)"/><path class="cls-2" d="M677.14,1118c-.9,1.5,2.1,17,5,26.4,5.5,17.5,15.5,33.6,32,51.7,2.2,2.4,3.6-1.9,2.4-7.7-.9-3.8-.8-5.8.3-9l1.4-4.1-9.4-11.8c-5.2-6.5-12.2-15.7-15.4-20.5a149.66,149.66,0,0,0-8.9-12.1,17.4,17.4,0,0,1-3.6-7.5C680.24,1119.23,678.24,1116.33,677.14,1118Z" transform="translate(-50.7 15.16)"/><path class="cls-2" d="M1240.84,1119.43a15.17,15.17,0,0,0-1.8,5.3,16.88,16.88,0,0,1-3.6,7.2c-1.6,1.9-5.5,7.3-8.8,12.1s-10.2,14-15.4,20.5l-9.4,11.8,1.4,4.1c1.1,3.2,1.2,5.2.3,9-1.2,5.8.2,10.1,2.4,7.7,21.1-23.2,31.7-43.2,36.1-68.7C1243.54,1120.23,1243,1116.73,1240.84,1119.43Z" transform="translate(-50.7 15.16)"/><path class="cls-2" d="M726.84,1375.43c.3.9,1.3,5.2,2.2,9.5,2.9,14.2,12.7,50,17,62,.9,2.7-.5,1.1-5.8-6.5-10.6-15-26.7-30.2-30.4-28.7-1.6.6-1.5.9.7,2.7a7.19,7.19,0,0,1,2.6,4.2c.3,10.8,1.4,13.4,10.2,25.4,20.6,28.1,25.1,34.7,25.4,37.7.2,1.8.8,2.9,1.6,2.7s4.1,5.5,8.3,14.3c3.9,8,7.4,14.3,7.9,14,2.7-1.7,1.7-51.5-1.6-80.9-.8-7.1-1.1-15.1-.8-17.6.6-4.7-.8-9.6-2.5-8.5-.5.2-1.2,4-1.5,8.2-1.1,11.3-4.2,29-4.8,27.3-.3-.8-2.9-8.7-5.8-17.5-5.3-16.5-12.9-33.5-19.5-44C728,1376.43,726.54,1374.53,726.84,1375.43Z" transform="translate(-50.7 15.16)"/><path class="cls-2" d="M1188.34,1383.53c-7.4,12.8-12.3,24.3-17.9,41.4-2.8,8.7-5.4,16.5-5.7,17.3-.6,1.7-3.7-16-4.8-27.3-.3-4.2-1-8-1.5-8.2-1.7-1.1-3.1,3.8-2.5,8.5.3,2.5,0,10.5-.8,17.6-3.3,29.4-4.3,79.2-1.6,80.9.5.3,4-6,7.9-14,4.2-8.8,7.5-14.4,8.3-14.3s1.4-.9,1.6-2.7c.3-3,4.8-9.6,25.4-37.7,8.8-12,9.9-14.6,10.2-25.4a7.19,7.19,0,0,1,2.6-4.2c2.2-1.8,2.3-2.1.7-2.7-3.7-1.5-19.8,13.7-30.4,28.7-5.3,7.6-6.7,9.2-5.8,6.5,2.4-6.7,11-36.9,13.5-47.2,4.7-19.4,5.9-24.9,5.7-25.2C1193,1375.43,1190.84,1379,1188.34,1383.53Z" transform="translate(-50.7 15.16)"/><path class="cls-3" d="M329.27.16c.6,15.7,2.3,26.4,7.3,44.5,7,25.5,20.9,65.7,30.5,87.9,2.1,5,3.6,9.2,3.4,9.4s-7.8-6.7-16.7-15.4-14.2-13.4-11.7-10.4c7.3,9,27.7,29.1,37.9,37.2s28.8,20.6,36,24.3,10,3.9,3.5.3c-9.4-5.2-29.3-19-37.6-26.1-8.9-7.6-8-5.5-25.7-57.2-17-49.6-22.9-71.8-25.2-95.5-.7-6.3-1.4-11.7-1.7-12S329-7.24,329.27.16Z" transform="translate(-50.7 15.16)"/><path class="cls-3" d="M1589.77-8.84c-.4,2.5-1.2,9.2-1.8,14.8-1.4,12.7-7.9,38.9-15.5,62.2-6.2,18.9-23.4,68.2-25.9,74.2-2.4,5.6-25.2,23.4-44.4,34.5-8.9,5.2-5.8,4.8,3.8-.5,22.7-12.4,49.9-35,70-58.2,4.6-5.3,1.7-2.9-9.9,8.3-8.9,8.8-16.4,15.7-16.6,15.5s2.1-6.4,5.1-13.8,8.2-21.2,11.5-30.5c17.8-50.2,25.4-81.7,24.7-102.5C1590.47-12.24,1590.37-12.74,1589.77-8.84Z" transform="translate(-50.7 15.16)"/><path class="cls-3" d="M343.57,4.36c1.5,1.8,9.5,11.4,17.8,21.3,69.6,83.2,109.7,127.1,128.1,140.6,3.4,2.4,9.4,7.1,13.5,10.5,13.4,10.7,28.5,21.1,50,34.1,62.9,38,110.5,60.8,153.4,73.3,11.2,3.2,16,3.7,5.8.6-23.7-7.4-69.4-28.5-107.3-49.6-44.9-25-58.1-33.3-107.3-67-20-13.8-40.3-34.7-92.4-95.4-27.2-31.7-62.8-71.6-63.8-71.6C341.07,1.16,342.07,2.66,343.57,4.36Z" transform="translate(-50.7 15.16)"/><path class="cls-3" d="M1571.87,7.86c-9,9.4-29.7,32.8-55.9,63.3-45.6,53.1-75.5,85.1-85.5,91.2-2.7,1.7-11.1,7.4-18.5,12.6-30.2,21.4-46.8,31.8-86.5,54.2-40.7,23-73.3,38.9-103,50.2-21,8.1-18.2,8,6-.2,22.5-7.5,42.5-16,68-29,43-21.8,96.7-54.3,116.5-70.5,3-2.4,9.3-7.3,13.9-10.7,11.5-8.5,43-40.1,63.7-63.8,24.1-27.5,87.9-103,87.2-103A67.59,67.59,0,0,0,1571.87,7.86Z" transform="translate(-50.7 15.16)"/><path class="cls-3" d="M326,109.56c0,23.4,19.9,70.5,38.5,91.1,4.4,4.9,3.9,3.8-4.3-8.8-17.1-26.4-29.9-58.5-31.9-79.9C327.57,103.56,326,102,326,109.56Z" transform="translate(-50.7 15.16)"/><path class="cls-3" d="M1591.57,110.66c-1.5,14.9-8.2,36.4-16.9,54.5-4.4,9-16.2,29.3-20.4,34.8-4.3,5.7-2,4.4,2.9-1.7,6.3-7.7,15.9-23.2,20.9-33.3,9.2-19.2,17.9-52.9,15.2-59C1592.37,104.06,1592.17,104.76,1591.57,110.66Z" transform="translate(-50.7 15.16)"/><path class="cls-3" d="M699.57,196c-1,1.7,5.8,20.3,15.8,43.2,7.8,17.5,22.3,44.3,27.7,51,1.2,1.4.4-.4-1.6-4-6.3-11.4-18.1-35.1-23.9-48.3-6-13.5-15.6-37.2-15.6-38.4,0-.4,2.1,1.7,4.7,4.7,32.1,37,65,65.9,97.3,85.5,11.6,7.1,33.1,18.8,33.5,18.3.2-.2-4-2.8-9.3-5.7-42.1-23.5-72.8-48.5-114.9-93.5C705.67,200.56,700,195.26,699.57,196Z" transform="translate(-50.7 15.16)"/><path class="cls-3" d="M1196.17,219.06c-39.7,40.9-62.4,59.1-101.9,81.6-5.7,3.2-10.3,6-10.3,6.2,0,1.7,38-20.4,51-29.7,23.2-16.4,58.2-49.3,78.1-73.2,2.7-3.2,4.9-5.5,4.9-5.1s-3.2,8.7-7.1,18.3a577.43,577.43,0,0,1-32.1,67.7c-4,7.2-2.9,6.7,2-1,12-18.9,26.9-50.2,37.1-78.3C1222.67,192.46,1221.17,193.36,1196.17,219.06Z" transform="translate(-50.7 15.16)"/><path class="cls-3" d="M56,205.46c-.1,3.2,8.8,15.2,20.5,27.5,32.9,34.6,91.4,70.7,149,91.9,6.6,2.4,12.1,4.6,12.3,4.8.9.9-4.8,8.6-12.6,17-19.3,20.7-36.4,46.9-48.5,74-11.9,26.6-19,49.9-34.2,111-15.7,63.6-23.1,88.6-33.5,113-13.6,32.3-33.7,59-53.4,71.3-3.2,2-5.3,3.8-4.8,4,1.8.6,18.9-4.3,32.8-9.3,20.5-7.5,43.5-19.8,57.9-31l6-4.6.6,5.8c.4,3.2,1.6,13.9,2.8,23.8,13.2,112.2,4.7,192-29.3,276-3.6,8.7-6.4,16.1-6.2,16.2.4.4,10.2-21.9,15.4-35.2,13.2-33.6,21.9-70.5,26.9-114,1.4-11.5,1.7-23.1,1.7-50-.1-37.5-1.9-63.4-6.9-98.5-4-27.9-4.3-24.3,2.7-30.8,10.9-10.3,23.4-26.5,29.2-38,3.8-7.5,2.1-8.6-2-1.4-16.4,29.7-43.1,52.9-81.9,71.3-11.5,5.4-35.4,14.4-36.2,13.6-.2-.2,2.1-2.3,5.1-4.6,9.1-7,21.3-22,30.4-37.2,16.3-27.1,26.8-57.9,44.6-130.4,15.8-64.3,21.4-83.8,31.3-109,13.3-33.6,27.3-56.7,51.8-85.6,5-5.8,9.9-11.9,11.1-13.5l2.1-2.9,7.4,2.3c4.1,1.2,14.4,4.3,22.9,6.8s16.7,5,18.3,5.4,2.7.5,2.7.1-1.9-1.3-4.2-2-11.9-4-21.3-7.3c-70.7-25.2-122.2-51.9-163.5-84.7-9.7-7.6-36.7-33.9-43.3-42.1C57.67,206.66,56.07,205.06,56,205.46Z" transform="translate(-50.7 15.16)"/><path class="cls-3" d="M1856.27,213.36c-29.3,35-79.3,70-137.8,96.6-21.7,9.9-62.5,25.6-86,33.2-3.8,1.2-7.4,2.7-8,3.3s-.4.8,1,.3c1.1-.4,9.4-2.9,18.5-5.6s20.1-6.1,24.5-7.4,8.7-2.6,9.7-2.6,3.2,2.2,5.2,4.9a120.92,120.92,0,0,0,8.3,10.3c20.9,23,39,52.4,51.2,83,10.2,25.6,17,48.9,30.1,102.8,17.7,73.1,26.2,99.9,40.9,128.7,10.5,20.4,26.4,41.4,37.6,49.4,2.5,1.8,4.3,3.4,4.2,3.6-1.1,1-26.3-8.8-40.2-15.6-37.9-18.5-61.5-39.9-79.9-72.2-1.5-2.7-2-3-2.4-1.6-.4,2,7.9,16.3,14.7,25.2,2.5,3.3,8.6,10.2,13.6,15.3,10.4,10.7,9.7,7.1,5.9,33.8-5.3,37.2-6.7,58.2-6.8,98.9-.1,41.5.4,47.8,5.9,81,3.4,20.1,8.2,41.3,13.1,56.7,5.7,17.9,19.9,53.8,23.2,58.3,1.7,2.4,2,3.3-6.1-17.1a461.26,461.26,0,0,1-32.8-141.9c-2.4-32.7.2-95.1,5.5-135.1.9-6.2,1.6-14.2,1.8-17.8s.4-6.6.6-6.6a73.24,73.24,0,0,1,7.1,4.9,242.59,242.59,0,0,0,56.6,30.4c10.8,4.1,30.3,9.7,33.7,9.7.7,0-1.5-1.8-5-4.1-18.6-12.2-35.5-33.5-49.1-61.9-12.1-25.4-20.7-53-36.1-115.5-18.1-73.5-25.3-96-41-128a270.47,270.47,0,0,0-45.4-66.4,131.21,131.21,0,0,1-8.9-10.4l-2.8-3.7,3.6-1.6c2-.8,7.8-3,12.8-4.8,29.3-10.6,68.7-31.1,97.7-50.7,23.2-15.7,46.7-36.6,59.9-53.2C1866.17,205.46,1867.27,200.06,1856.27,213.36Z" transform="translate(-50.7 15.16)"/><path class="cls-3" d="M370,207.36a1.75,1.75,0,0,1-1.7,1.7c-1,0-12.8,2-26.3,4.6s-31.2,5.4-39.5,6.5c-18,2.4-48.4,4.1-61.5,3.4-33.5-1.7-64.5-4.6-115.6-10.9-51.5-6.3-51.7-5.8-.9,2,112.9,17.1,149.1,16.7,240.2-2.5,5.7-1.2,8.4-3.3,6.5-5.2C370.27,206.06,370,206.16,370,207.36Z" transform="translate(-50.7 15.16)"/><path class="cls-3" d="M1548.77,206.76c-1.5,1.5-.7,3.2,2,4.2,3.5,1.4,47,9.7,63.7,12.2,43.4,6.4,91.6,4.8,160-5.4,38.1-5.7,52.9-8.1,50.9-8.4-1.1-.2-14.8,1.3-30.5,3.2-117.9,14.5-146.1,14.6-219.9.6-11.8-2.3-22.3-4.1-23.2-4.1a2.13,2.13,0,0,1-2-1.6C1549.57,206.66,1549.17,206.36,1548.77,206.76Z" transform="translate(-50.7 15.16)"/><path class="cls-3" d="M79.77,207.86a5.28,5.28,0,0,0,2.5,0c.6-.3.1-.5-1.3-.5S79.07,207.56,79.77,207.86Z" transform="translate(-50.7 15.16)"/><path class="cls-3" d="M1837.77,207.86a2,2,0,0,0,1.9-.1c.4-.3-.2-.6-1.3-.5S1837,207.56,1837.77,207.86Z" transform="translate(-50.7 15.16)"/><path class="cls-3" d="M1829.27,208.86a10.28,10.28,0,0,0,3.5,0c.9-.3.1-.5-1.8-.5S1828.27,208.56,1829.27,208.86Z" transform="translate(-50.7 15.16)"/><path class="cls-3" d="M485,219.26c0,1.7,13,26.4,24.2,46,17.9,31.1,34.8,57.1,66.1,101.9,37.4,53.3,60,81.3,86.4,107.1,23.6,22.9,29.3,26.8,9.2,6.3-9.1-9.3-19.7-20.7-23.5-25.4-15.4-18.7-42-53.9-55.5-73.5-3.1-4.4-14.3-20.6-25-36-28.8-41.5-49.1-73.1-70.9-110.7C487.17,219.76,485,216.66,485,219.26Z" transform="translate(-50.7 15.16)"/><path class="cls-3" d="M1430.47,223.76c-2,3.3-9.1,15.1-15.9,26.4-22.8,38.2-45.3,72.6-73.1,112-2.1,3-7.5,10.7-11.9,17-10.8,15.5-34.7,47.7-46.4,62.5-12.2,15.4-21.4,25.8-37.6,42.4-9.7,9.9-11.4,12-6.6,8,9.9-8.2,38.7-37.3,47.1-47.4,39-47.3,92.9-124.7,123-177,14.6-25.2,26.5-48.2,25.5-49.2C1434.27,218.16,1432.47,220.56,1430.47,223.76Z" transform="translate(-50.7 15.16)"/><path class="cls-3" d="M836.47,232.16c1.6,5.3,20.7,26.1,39.4,42.7,14.2,12.7,47.1,38.4,47.1,36.8,0-.2-3.7-3.2-8.2-6.7-25.7-19.5-56.2-48-72.3-67.3C835.57,229.26,835.67,229.36,836.47,232.16Z" transform="translate(-50.7 15.16)"/><path class="cls-3" d="M1075.27,240c-13.4,16-41,41.9-63.7,59.7-17.2,13.5-17.5,14.6-.6,2,25-18.7,53.3-44.5,65.2-59.7,5.3-6.7,8.5-11.8,7.5-11.8C1083.57,230.16,1079.77,234.56,1075.27,240Z" transform="translate(-50.7 15.16)"/><path class="cls-3" d="M1081,240.36c0,7.3-10.3,50.4-16,67.2-3,8.9-3.9,13.9-2.1,12.1,1.1-1.3,7.3-20.3,10.5-32.5,5-18.7,10.1-49,8.2-49C1081.27,238.16,1081,239.16,1081,240.36Z" transform="translate(-50.7 15.16)"/><path class="cls-3" d="M838.07,241.56c-.2,5.5,3,24.2,6.6,38.6,3.6,15,10.8,37.8,12.4,39.4,1.8,1.9.9-2.4-2.5-12.3-4.2-12.1-10.7-38.1-14-55.6C839.27,244.46,838.07,240,838.07,241.56Z" transform="translate(-50.7 15.16)"/><path class="cls-3" d="M956.07,297.46c-3.7,13.3-6.3,27.7-5.9,32.1.2,2,1.1-1,2.6-8.4,1.2-6.3,3.3-15.3,4.6-20,3-11,2.8-11.7,10.7,25.5,2,9.3,2.4,2.3.4-8.2-2.1-11.6-7.6-32.3-8.5-32.3C959.57,286.16,957.77,291.26,956.07,297.46Z" transform="translate(-50.7 15.16)"/><path class="cls-3" d="M503,375.76c0,1.3,10.1,15.6,17.9,25.4,18.9,23.6,43.4,44.3,71.6,60.7,10.3,6,37.4,19.4,50,24.8,12.8,5.5,39.4,14.5,42.8,14.5,4.8,0,3.6-1.4-2.5-3-22.4-6-63.4-24.6-93.8-42.7-30.2-17.8-55.3-40.6-78.8-71.1C506.17,379.16,503,375.26,503,375.76Z" transform="translate(-50.7 15.16)"/><path class="cls-3" d="M1414.27,377.86c-5.7,9.1-23.2,29-37,42.3-20.9,20.2-41,33.7-76.3,51.4-12.4,6.2-27.9,13.4-34.5,16-14.7,5.9-31.2,11.6-33.8,11.6-1,0-1.5.4-1.2,1,1,1.6,3.6,1.2,15.1-2.3,36.3-11.2,82.7-34.7,111.2-56.4l8.5-6.5-.7,5.2c-1.6,11.9-10.1,32.4-19.5,46.5-6.7,10.2-6.8,10.6-.7,4.3,8.9-9.3,18.5-28.9,22.1-45,1.2-5.7,1.4-8.1.6-9.6-1-1.8-.3-2.8,5-7.9,14.9-14,26.4-27.1,36-40.8,4.8-6.8,8.2-12.5,7.5-12.5C1416.27,375.16,1415.27,376.36,1414.27,377.86Z" transform="translate(-50.7 15.16)"/><path class="cls-3" d="M298.27,411.36c-.4.7-.9,6.8-1.1,13.5-1.4,45.7,21.6,119,53.4,170.5a311.23,311.23,0,0,0,21.8,29.3l2.6,3-1.4-3.5c-2.4-6.2-5.4-57-4.1-70.1l.7-7.3,2.2,5.9c2.3,6.4,7.5,14.7,12.8,20.7,1.8,2,7.6,9.2,12.8,16,11,14.4,32.8,36.7,41.8,42.7,7.9,5.3,18,10.1,21.2,10.1,1.7,0,.4-.9-4.1-2.9-18.5-7.9-38.6-26.8-68.2-64a114.79,114.79,0,0,1-10.7-16.1c-3.7-7.5-7.6-17.8-7.2-19.3.1-.4-.2-.7-.8-.7-2,0-2.5,6.3-2.4,32.5,0,20.8.4,29.1,1.7,36.3.9,5,1.7,10,1.7,10.9s-2.3-1.4-5.1-5.2c-17.3-23.7-34.3-57.7-46.8-93.6-13.4-38.3-19.1-67.1-19.2-96.5-.1-7.4-.2-13.4-.4-13.4S298.77,410.76,298.27,411.36Z" transform="translate(-50.7 15.16)"/><path class="cls-3" d="M1619.67,428.26c-.6,21.4-2.3,33.2-7.8,55.2-12.4,49.2-36.8,102.6-62.6,136.6-1.1,1.4-1-1.3.2-6.9,2.4-11.3,3.8-32.9,3.2-51.6-.6-23.6-1.7-27.1-5-16.6-5,15.7-14.4,29.3-39.7,57.8-16.4,18.5-28.1,28.1-43.2,35.5-7.1,3.5-7.7,4-4.3,3.4,14.5-2.4,38.1-22.6,60.7-51.8,5.6-7.2,12.4-15.7,15.1-18.7,4.2-4.8,9-13.2,12.5-22,2.1-5.3,2.4,15.6.7,41.5-2.2,31.8-2.1,30.8-3.5,33.4-2.5,4.8-.1,2.6,7-6.2,24.7-30.9,48.6-81.4,60.9-129,6-22.9,9.8-52.7,8.8-67.5C1621.57,406,1620.27,409,1619.67,428.26Z" transform="translate(-50.7 15.16)"/><path class="cls-3" d="M551.57,435.86c-2.9,2.9,5,27.8,13.7,42.8,4,7,10.6,15.4,13.1,16.7,1.9,1,2,1,.6-.9a121.72,121.72,0,0,1-12.1-19.3c-6.9-13.1-12.9-30.3-12.9-36.7C554,436.16,552.67,434.76,551.57,435.86Z" transform="translate(-50.7 15.16)"/><path class="cls-3" d="M491,454.66c0,.5,1.9,3.7,4.1,7.2,5.9,9,15.2,16.4,30.8,24.4,8,4,8.3,4.3,11.1,10.5,6.1,13.4,18,31.9,32.8,50.9,6.2,8,23.2,25.6,27.7,28.8l3,2.1-2-2.5c-1.1-1.3-5.6-6.4-10.1-11.4a342.26,342.26,0,0,1-26.9-34c-8-11.2-21.5-33.9-21.5-36.1,0-.9,1.6-.6,5.3,1,9.9,4.4,24.4,8.5,31.1,8.8,6.3.3,9.5-1.3,3.9-1.9-9.3-.9-12.4-1.6-20.6-4.3-13.1-4.4-40.3-18.1-49.4-24.9a86.93,86.93,0,0,1-12.8-11.7c-2.7-3.2-5.3-6.3-5.7-6.9S491,454.16,491,454.66Z" transform="translate(-50.7 15.16)"/><path class="cls-3" d="M1423.87,459.86c-6.9,8.9-19.7,18.1-37.6,26.9-18.9,9.2-33.4,14.4-42.3,15.1-8.5.6-10.2,1.2-7.1,2.4,4.5,1.8,21.6-2.1,36.2-8.2,3.8-1.5,6.9-2.4,6.9-1.9a44,44,0,0,1-3.6,7.6c-11.4,21.1-30.8,47.7-48.9,67.2-4.3,4.6-7.6,8.5-7.3,8.7.8.8,17.9-15.8,25-24.3,15.4-18.3,32.5-44.3,37.8-57.3,2.1-5.3,2.6-5.7,9.9-9.3,15.9-7.9,27.8-17.7,33.6-27.9,1.5-2.6,2.5-4.7,2.2-4.7A41.61,41.61,0,0,0,1423.87,459.86Z" transform="translate(-50.7 15.16)"/><path class="cls-3" d="M417.47,495.56c-1.5,3.3.3,27.6,3,41.6,7.2,37.1,16,62.1,30.1,86.2,6.9,11.7,6.9,9.6,0-4-11.5-22.9-21.5-54.2-27.1-84.7-1.4-7.7-2.8-15.2-3.1-16.8-.7-3.3.9-3.6,2.4-.3,1.8,4,13.4,15.7,19.5,19.7,5.3,3.4,11.2,5.7,12.2,4.7.3-.2-.4-5.6-1.4-11.9-2.8-16.9-3.2-19.9-2.5-19.9.4,0,3.9,3.1,7.8,6.8,22.9,21.7,63.2,45.9,106,63.5l13,5.3,3,7c11.4,26,43.3,70.6,102,142.7l5.6,6.8.2,7.7.2,7.7.5-6.9.6-6.9,17,19.3c19.3,22.1,43.3,46.6,61.5,63,20.4,18.4,57,47.1,84.8,66.4,9.4,6.6,11,6.9,2.5.5-12.6-9.4-40.7-32.1-57.3-46.3a882.82,882.82,0,0,1-96.4-96.9l-11.8-13.7.7-6.8c1.4-13.3,7.3-37.4,11.4-46.7,2.3-5.1,16.1-20.3,29.7-32.7,5.9-5.4,10.8-9.7,11-9.5s-.9,4-2.2,8.7c-4.7,15.9-6.8,33.3-6.7,56,.1,14.2.6,22.8,1.6,28l1.6,7.5-.7-9c-1.2-15.2-.5-43.2,1.3-56,2.1-15.1,3.8-22.3,7.6-32.7,4.8-13.2,4.8-12.5.8-9.8-4.5,3.2-41.8,40.4-45.5,45.4-1.5,2.1-2.9,5.3-3,7a76.2,76.2,0,0,1-2.8,12c-2.3,7.9-3.6,14.4-6.3,31l-.8,4.9L677,720.56c-44.7-54.8-72.8-93.5-90.5-124.2-2.6-4.6-4.5-8.6-4.2-8.9s2,0,3.8.6c5.1,1.8,15.6,3.2,18.4,2.5,4.1-1,2.9-2.4-2.1-2.4-5.6,0-18.1-2.7-21.1-4.6a9.11,9.11,0,0,0-4.1-1.4c-4.7,0-51.2-22-68.9-32.6-25.2-15.2-41.4-27.2-56.2-41.7-5.2-5-8.4-7.8-7.2-6a18.65,18.65,0,0,0,3.1,3.8c.5.3.7,2.5.4,4.9-.5,3.7,2.4,23.4,4.2,28.1,2,5.1-12.1-4.2-21.9-14.5-10.3-10.7-10.7-11.5-11.6-21.7C418.57,496.56,418.07,494.26,417.47,495.56Z" transform="translate(-50.7 15.16)"/><path class="cls-3" d="M1500.57,498.76c-.3,2.6-.6,6.4-.6,8.5,0,5.9-8.7,16.6-21.5,26.4-6,4.5-11.5,7.5-11.5,6.3,0-.2.9-4.6,2.1-9.8a113.6,113.6,0,0,0,2.2-16.6c.2-6,.6-7.6,3-10.7a28.61,28.61,0,0,0,2.7-4c0-.3-4.6,4.1-10.2,9.7-14.8,14.7-37.1,30.8-62.3,44.9-20.2,11.3-57.9,28.7-62.2,28.7a4.41,4.41,0,0,0-2.9,1c-1.6,1.6-16.3,5-21.6,5-2.6,0-4.8.4-4.8,1,0,1.8,10,1.5,18.1-.6,3.1-.8,6-1.4,6.3-1.4,1.9,0-10.8,21.2-25.3,42.5-16.1,23.6-36,49.4-78.2,101.8-1.6,2-1.7,2-2.2-.9-.3-1.6-.9-5.6-1.2-8.9s-2.3-12.1-4.2-19.5-3.6-15-3.8-16.8c-.2-2-1.8-5.1-4.2-8-11-13.5-46.4-47.4-47.1-45.2-.2.6.5,2.9,1.7,5.3,2.8,5.9,6.6,19.5,8.5,30.7,2,12,3.7,35,3.1,43.2-.3,3.5-.6,11.2-.9,17.3-.5,14.5.9,7.8,2.4-10.8,1.6-21.5-1.2-49.6-6.9-70.2-1.1-3.8-1.8-7.1-1.6-7.4.9-.8,37.4,36.7,39.3,40.4,4.5,8.9,10.9,34.1,12.7,49.6l.6,5.7-11.9,13.9c-44.3,51.5-89.4,93.9-148.4,139.2a129.94,129.94,0,0,0-10.8,8.7c0,.7,2.1-.8,25-17.5,19.9-14.5,40.1-30.3,57.5-45.1,15.3-13,61.6-59.7,76-76.7,6.6-7.8,12.3-14.2,12.7-14.2s.9,2.7,1.1,6.1l.3,6.3.2-7.5.2-7.5,6.6-7.9c48.7-58,96.2-125.2,102.4-144.8.9-3,1.8-3.9,4.8-4.9,5.7-1.8,30.6-12.6,40.7-17.7,29.7-14.8,58.5-34,75.3-49.8l7.2-6.9v4a138,138,0,0,1-2,15.5c-1.1,6.3-2,11.8-2,12.2,0,1.4,2.5.8,8.5-2.1,7.3-3.5,15.4-10.5,21.2-18.4,5.3-7.3,5.4-6.6,1.7,13-5.9,32.2-14.1,58-27.3,85.7-3.3,6.9-5.8,12.6-5.6,12.6.9,0,11.7-19.3,15.6-27.7,12.8-27.7,23.9-74.8,23.9-100.6C1503,495.06,1501.57,492,1500.57,498.76Z" transform="translate(-50.7 15.16)"/><path class="cls-3" d="M908,562.76c-1.4.2-6.5.9-11.5,1.5a266.38,266.38,0,0,0-33.8,6.6,25.19,25.19,0,0,0-11,6.3c-2.9,2.6-9.1,8.2-14,12.5-37.9,33.4-71.2,85.2-95.2,148.3-2.6,6.8-4.6,12.5-4.4,12.7s3.5-6.9,7.3-15.8c27.3-64.4,53.5-105,90.6-140.2,15.7-15,22.1-19.5,31.1-22.1,10-2.9,30.6-7.2,38.6-8l5.9-.6,1.8,12.8c5.4,39.2,16.8,92,25.1,116.4,6.5,18.9,18.2,45,20.2,45,.3,0-.5-1.7-1.7-3.8-7.2-12.1-19.6-49.8-26.5-80.6-3.6-16.2-15.2-76.9-16.7-87.6-.3-2.3-1.6-4.1-2.8-3.8C910.67,562.36,909.37,562.56,908,562.76Z" transform="translate(-50.7 15.16)"/><path class="cls-3" d="M1006.17,564.56c-.1,4-12.1,68.1-16.2,86.1-6.6,29.6-14.7,56-23.4,76-1.4,3.3-1.9,5.2-1.2,4.1,6.2-7.9,20.5-49.5,27-78.5,4.3-19,12-60.9,14.7-80l1.2-8.3,6.1.7c16.1,1.8,43.3,8.5,48.1,11.8,13.3,9.2,40,35.8,52.6,52.3,15.9,20.7,27.9,40.3,41.2,66.9,7,14.1,19.6,42.3,23.7,53.1.6,1.5,1.3,2.5,1.5,2.2,1.2-1.2-12.3-34.2-23-56.3-17.1-35.1-35.5-62.4-58.8-87.3-12.6-13.5-32.8-32.2-37.2-34.4-6-3.1-35.4-8.9-51.1-10.1C1006.67,562.46,1006.17,562.56,1006.17,564.56Z" transform="translate(-50.7 15.16)"/><path class="cls-3" d="M1629.57,646c-18.5,31.7-41.6,59.9-84.1,103.1-24.9,25.3-43.5,42.2-62.1,56.7-21.3,16.6-46.2,31.9-62.5,38.5-4.4,1.7-7.8,3.4-7.5,3.6,1.1,1.1,14.8-4.2,25.6-9.8,33.6-17.6,64.6-42.5,109-87.5,32.6-33.1,52-55.8,67.6-79.4,6.1-9.2,18.8-31,18.3-31.5C1633.67,639.46,1631.67,642.36,1629.57,646Z" transform="translate(-50.7 15.16)"/><path class="cls-3" d="M294.67,655.66c15.3,26.7,28.4,43.5,62.4,80.1,15.5,16.7,38.1,38.9,53.9,52.9,32.5,28.8,76,56.4,93.2,59l3.3.6-3.5-1.7c-26.7-12.6-36.5-18.2-55.5-31.7-28.9-20.6-66.9-55.9-101.9-94.7-24.8-27.5-37.6-43.9-50.1-64C287.77,642.16,286.77,641.86,294.67,655.66Z" transform="translate(-50.7 15.16)"/><path class="cls-3" d="M962.07,735.86c-1,2.6-1,2.7.4.9A7.69,7.69,0,0,0,964,734C964,732.46,963.27,733.16,962.07,735.86Z" transform="translate(-50.7 15.16)"/><path class="cls-3" d="M470.27,748.36c1.5,26.1,11.6,55.8,27.4,80.6,7.3,11.4,9.7,13.2,3.5,2.5-6.8-11.7-10.3-19.3-15.8-34.4-6.5-17.8-10-32.2-11.6-47.4-.9-8.9-1.5-11.5-2.6-11.5C469.87,738.16,469.77,739.76,470.27,748.36Z" transform="translate(-50.7 15.16)"/><path class="cls-3" d="M1446.87,739.86c-.9,27.8-12.8,65.3-30,94.5-5.1,8.6-2.5,6.4,3.9-3.4a179.6,179.6,0,0,0,27.7-72.3c2-13.3,2-20.5,0-20.5A1.82,1.82,0,0,0,1446.87,739.86Z" transform="translate(-50.7 15.16)"/><path class="cls-3" d="M737.07,743.76c0,1.1.3,1.4.6.6a2,2,0,0,0-.1-1.9C737.27,742.06,737,742.66,737.07,743.76Z" transform="translate(-50.7 15.16)"/><path class="cls-3" d="M477.47,759.26c1.3,4.1,13.9,19.1,23.6,28,11,10,22.2,18.9,23.8,18.9.8,0,1.1-4.1.9-14.3-.4-17.6-2.1-19.1-2.8-2.4l-.5,11.9-3-2.3c-7.6-5.8-25.6-23.3-32.8-31.9C478.17,757.06,476.27,755.46,477.47,759.26Z" transform="translate(-50.7 15.16)"/><path class="cls-3" d="M1433.07,767.06c-7.3,8.9-18.7,20.1-31.1,30.4l-4.5,3.8-.5-11.7c-.3-8.1-.9-11.9-1.7-12.2-1-.3-1.3,2.6-1.3,12.1,0,6.9-.3,13.2-.6,14-1.1,3,2.6,2.4,7.5-1.2,9.1-6.8,25.7-22.1,31.2-28.7,6-7.2,10.9-14.2,10.9-15.6C1443,755.76,1440.67,758,1433.07,767.06Z" transform="translate(-50.7 15.16)"/><path class="cls-3" d="M524.57,771.36c26.5,42.2,48.3,63.4,88.9,86.8,24.1,13.9,49.4,24.4,54.1,22.6,1.4-.6-.2-1.4-6.3-3.2-21.2-6.2-65.3-31.4-86.6-49.5-13.7-11.7-28.7-28.8-44.1-50.2C522.67,766.86,519.87,763.86,524.57,771.36Z" transform="translate(-50.7 15.16)"/><path class="cls-3" d="M1390.47,776c-15.6,22.4-37.5,46.6-53,58.3-13.7,10.4-40.2,26.3-58.4,35-10.4,5-23.5,9.9-26.5,9.9-.9,0-1.6.4-1.6,1,0,4.6,26.4-5.7,52.5-20.4,35.1-19.9,54.7-36.6,74.8-63.8,9.5-12.9,20-28.8,18.9-28.7C1396.77,767.26,1393.77,771.16,1390.47,776Z" transform="translate(-50.7 15.16)"/><path class="cls-3" d="M627.47,800.76c1.4,1.5,17.5,12.9,28,20.1a434.45,434.45,0,0,0,45,26.8l14,7.2.7,4.3c1.6,9.5,8.4,29.5,14.5,43,6.2,13.8,21,41.7,35,65.9,31.1,54,45.1,74.4,70.7,103l2.1,2.3-4-1.6c-25.1-10.4-66.6-42.6-104-80.8-8.9-8.9-17.6-18-19.4-20.2s-3.4-3.6-3.6-3.4c-.7.7,13.3,17.8,21.5,26.4,4.2,4.4,13.3,13.4,20.3,20.1s12.7,13,12.7,13.9c0,2,9,23.7,13.3,31.9,20.3,39.1,39.3,71.7,80.5,138,16.8,26.9,38,57.1,55.5,79,10.2,12.6,27.7,32.8,27.7,31.8-.1-.5-6.4-8.7-14.1-18.3-25.5-32-48.2-65-76.4-111-2.9-4.7-8.2-13.2-11.7-19-20.5-33.1-41.6-69.8-53.9-93.5-8.9-17.2-18.2-37.5-17.2-37.5.3,0,5.9,4.3,12.4,9.5s16.9,13,23.1,17.2c16.7,11.3,39.8,22.1,39.8,18.7a45,45,0,0,0-4.3-5.7c-17.9-21.3-32.5-43.7-64.9-100.2-23.6-41.2-36.4-65.2-42.3-80-3.7-9-11.4-31.9-10.9-32.4.2-.2,4.5,1.5,9.6,3.7,24.4,10.7,73.7,27.8,122.9,42.5,24.6,7.4,27.9,8.2,27.9,6.9,0-.5-5.3-2.6-11.7-4.7-24.6-7.8-95.3-31.5-107.6-35.9a543.46,543.46,0,0,1-115.2-58C629.57,801.56,626.17,799.56,627.47,800.76Z" transform="translate(-50.7 15.16)"/><path class="cls-3" d="M1284,805.76c-7.9,5.7-37.4,23.6-50.6,30.8-31.4,17-60.8,28.7-129.4,51.4-28.3,9.4-53.9,17.8-56.7,18.7-5.2,1.6-7.8,3.5-5,3.5,3.5,0,47.5-13.6,90.7-28,26.5-8.8,56.8-20.3,65.1-24.6,1.7-.8,3.3-1.3,3.6-1,.7.7-3.9,15.6-8.4,27.1-7.1,18.2-22.8,47.9-50.6,96-25.5,44.1-37.9,63.1-55.4,85.1-4,5.1-7.3,9.5-7.3,9.8,0,2.9,17.4-4.6,33-14.3,9.2-5.7,23.7-16.5,34.4-25.4,3.8-3.1,7.1-5.5,7.3-5.3.7.7-8.4,21.1-15.4,34.6-16.6,31.6-34.7,62.5-78.3,133.5-16.1,26.2-50,74.5-65.4,93-7.1,8.5-14.8,18.5-14.3,18.5s21.5-24.2,30.3-35.1c23.9-29.8,56-78.7,95.9-146,23.1-38.9,44.6-80.3,49.8-95.7,2.4-7.1,2.6-7.4,19.1-23.4,16.8-16.2,28-28.6,35.1-38.8,3.8-5.5,3.8-5.5-2.5,1.5-26.1,29-68.5,66.8-95,84.6-9.2,6.1-30,17.3-30.8,16.4-.2-.2,4.3-5.7,10-12.2s12.5-14.5,15-17.9c12.1-15.9,36.4-55.5,58-94.4s30.2-58,36-79.9c1.7-6.4,3.2-12.1,3.4-12.8s5.4-3.7,11.6-6.8a382.62,382.62,0,0,0,42.2-24.8c17.6-11.6,30.7-21.1,28.4-20.7C1287.57,803.26,1285.87,804.36,1284,805.76Z" transform="translate(-50.7 15.16)"/><path class="cls-3" d="M646.67,821.86c-2.6,2.5,2,19,9.2,33.8,3.2,6.6,7,13,8.3,14.2,1.9,1.8,1.4.4-2.3-7.2-5.6-11.5-9.4-22-10.9-30.5-.6-3.6-1.3-7.5-1.6-8.8C649,821.16,647.87,820.56,646.67,821.86Z" transform="translate(-50.7 15.16)"/><path class="cls-3" d="M1270.57,822.36c-.2.7-1.1,5.3-2,10.3-1.7,8.6-6.7,22.5-12.2,33.8l-2.5,5.2,2.6-3c9.3-11,20.8-45.5,15.8-47.2A1.25,1.25,0,0,0,1270.57,822.36Z" transform="translate(-50.7 15.16)"/><path class="cls-3" d="M235,868.36c0,.4.7,3.7,1.5,7.3,7.4,31.6,8.3,76.8,2.3,110.5-2.6,15.2-3.3,21-2.1,21,.9,0,18.1-17.1,23.1-23,1.6-1.9,6.2-8,10.2-13.5,8.1-11.1,11.9-15.5,13.3-15.5.6,0,.8,11.4.4,30.2-.8,42.4-3.6,61.8-15.7,112.2-1.7,7.1-2.9,13-2.7,13.3.5.4,6.3-19.4,11.1-37.7,7.4-28.4,10.7-57.6,10.9-95.8V950l5.6-4.6c9.4-8,13.9-12.5,11.1-11.1-8.7,4.2-22.6,17.4-33,31.4-12,16.1-31.4,38.4-32.5,37.3-.2-.2.5-3.9,1.6-8.3,6.9-29.2,7.7-70.1,1.9-103.9-1.9-11.3-4.4-20.3-6.1-22.1C235.37,868.16,235,868.06,235,868.36Z" transform="translate(-50.7 15.16)"/><path class="cls-3" d="M1682.57,871.26c-5.6,13.4-8,33.8-8.1,67.4,0,29.2,1,39.4,5.5,57.3,1,4,1.4,7.2.9,7-2-.7-20.8-22.3-29.8-34.3-11.2-14.9-17.8-21.8-27.6-29.2-7.1-5.3-13-7.6-6.5-2.5,1.9,1.5,6.2,5,9.5,7.8l6,5.1-.2,12.9c-.2,7.1.1,23,.7,35.4,1.6,37.6,5.9,61.9,18.1,103.3,3.7,12.5,3,6.3-1.5-12.9-7.6-32.5-11.4-55.5-13.1-79.4-.8-11.1-1-52.9-.2-53.6,1-1.1,2.4.4,14.3,16.3,6.8,9.1,16.3,20.3,22.4,26.2,12.5,12.5,12.5,12.5,8.6-7.7-3.8-19.5-4.9-34.7-4.3-60.2.5-22.4,2.6-41.3,6.2-55.4C1685.17,868.06,1684.67,866.16,1682.57,871.26Z" transform="translate(-50.7 15.16)"/><path class="cls-3" d="M224.17,917.66c-26.6,39.9-44.4,59.2-70.2,76.1-9.2,6-23.1,13.4-27.8,14.9-1.3.4-2.1.9-1.9,1.1,1.1,1.1,17.3-6.1,27.5-12.2,26-15.6,46.1-36.3,69.7-72,9-13.6,15.4-23.6,16.3-25.7.2-.4,0-.7-.5-.7S230.87,907.56,224.17,917.66Z" transform="translate(-50.7 15.16)"/><path class="cls-3" d="M1682,899.66c0,1,14.8,24.1,22.9,35.8,19.8,28.5,41.6,50,63.7,62.7,8.2,4.7,23.7,11.6,28.1,12.5,1.5.3.1-.5-3.2-1.8a168.17,168.17,0,0,1-15.5-7.7c-31.7-17.6-52.8-38.9-82.3-83.2C1685.07,902,1682,897.86,1682,899.66Z" transform="translate(-50.7 15.16)"/><path class="cls-3" d="M1322.47,936.26c-5.9,6.1-37.4,34.3-49.5,44.4-28.3,23.4-55.8,41.8-64,42.7l-2.5.3-.6-16.2c-.5-16.2-1.2-19.3-4.5-19.3-1.7,0-1.8,3.2-.2,4.8.9.9,1.4,6.5,1.8,17l.5,15.7,3.7.3c14,1.2,62.3-35.1,109.4-82.2,4.8-4.9,10.8-11.6,10.2-11.6A28.72,28.72,0,0,0,1322.47,936.26Z" transform="translate(-50.7 15.16)"/><path class="cls-3" d="M597,936.86c0,1.3,31.9,32.2,46.5,44.9,28.6,24.9,59.9,45,69.2,44.2l3.8-.3.5-16.4c.4-11.9.8-16.6,1.8-16.9,2-.6,1.4-4.2-.7-4.2-3,0-4.1,5.2-4.4,21.1l-.2,14.4-2.5-.2c-12.7-1.3-69.4-44.2-106.7-80.7C600.27,938.86,597,936.26,597,936.86Z" transform="translate(-50.7 15.16)"/><path class="cls-3" d="M595.37,943.26c-.8,1.4.5,21.6,1.7,24.6.5,1.5.5,2.3-.2,2.3s-27.7-15-38.4-21.4c-2.2-1.3-1.8-.7,1.4,2.2,2.5,2.3,10.8,7.7,18.6,12.1,14.7,8.5,20,10.9,21.1,9.9.3-.4.1-4.4-.5-8.9A139.46,139.46,0,0,1,598,949C598,942.66,597.07,940.56,595.37,943.26Z" transform="translate(-50.7 15.16)"/><path class="cls-3" d="M1322,942.46c0,8.4-1.2,23-2,25.1-1.3,3.5-.7,5.6,1.6,5.6,3.7,0,38.2-20.6,41.5-24.7,1.2-1.6,1.1-1.6-1.6.2-5.4,3.4-37.8,21.5-38.6,21.5-.4,0-.4-1.5.1-3.3,1.5-5.6,1.7-23.9.3-24.4C1322.57,942.16,1322,942.26,1322,942.46Z" transform="translate(-50.7 15.16)"/><path class="cls-3" d="M362.47,965.86c-4,33.4-37,88.8-79.9,134.1-6.4,6.8-11.6,12.5-11.6,12.8,0,1.2,15-13,23-21.8,19.1-20.8,29.5-34.6,45.7-60.2l3.1-4.9.6,3.9c3.2,21.5,4.3,102.4,1.8,129.3a594.39,594.39,0,0,1-10.8,67.8c-.6,3.1,1,2.9,3.1-.3.9-1.5,1.2-2.3.5-1.9s-1,.2-.7-1.1c2.9-9.8,7.1-31.6,9.1-46.9,5.9-44.2,5.7-107.9-.5-147.5l-1-6.6,6.5-13.3c9.2-18.8,13.6-33.3,13.6-44.1C365,958.36,363.37,958.86,362.47,965.86Z" transform="translate(-50.7 15.16)"/><path class="cls-3" d="M1555.27,968.36a88.58,88.58,0,0,0,2.7,15.3c2.5,8.2,9.5,24.5,14.1,32.8,3,5.6,3.1,6.1,2,11.5-.6,3.1-2,16.7-3.2,30.2-4.6,53.5-.3,121.7,10.2,160.5a31.31,31.31,0,0,1,1.1,6.2,5.08,5.08,0,0,0,1.4,3.4c2,1.7,1.8-1.5-1-15.6-7-34.4-9.9-65-9.9-106.5,0-28.8,2.8-79,4.4-79,.4,0,3.7,4.8,7.4,10.6,16.8,26.2,39.8,53.9,58.6,70.5,7.2,6.3,7.1,6.1-3.3-5.1-31.8-34.3-54.7-66.6-70.2-99-6.8-14.2-10.4-25-11.9-35.8-.6-4.5-1.6-8.2-2.1-8.2S1554.87,963.56,1555.27,968.36Z" transform="translate(-50.7 15.16)"/><path class="cls-3" d="M403.37,1006.46a94.1,94.1,0,0,0,7,29.1c1.4,3.2,2.4,6.8,2.1,8s-1.4,10-2.5,19.6c-4.7,42.4-13.1,74.2-27,102.2-9.3,18.8-18.1,31.4-34.9,50l-8.5,9.3,9.8-9.5c30.3-29.4,46.3-59.7,58.3-110l1.8-7.5.6,13.5c1.3,27.3,8.6,66.7,19.4,105,9.1,32.3,26.4,80,41.2,113.8,19.4,44.8,34.9,71.1,60.6,103.2,7.9,9.8,7.7,9.6,7.7,8.2a5.62,5.62,0,0,0-1.9-2.9c-3.7-3.5-22.8-31-30.7-44.3-33.5-55.8-74.2-164.2-86.3-229.5-5.7-31.2-10.3-72.3-9-80.6.5-3,1.6-12.1,2.4-20.3,1.4-13.7,1.9-16.7,2.8-15.5.2.2,2.5,4.2,5.2,8.9,5.6,9.6,15.6,20.5,19.8,21.6s5.2-.7,7.2-11.6a88.19,88.19,0,0,1,5.1-16.9c3.3-7.2,3.7-9,1.4-7.6-3,1.9-7.5,14.1-10.1,27.7-.6,3.2-1.5,5.8-2.2,5.8-5.1,0-16.5-14.7-25.9-33.5-6.5-12.9-9.3-21.1-11.4-33.7-.9-5.7-1.9-10.5-2.2-10.8S403,1001.66,403.37,1006.46Z" transform="translate(-50.7 15.16)"/><path class="cls-3" d="M1515.17,1002.86c-.3,5.4-2.6,16.4-5,23.3-5.3,15.2-17.1,35.8-25.3,44.3-7,7.3-9,7.3-10.1.2-1.9-12.1-6.8-26.1-9.8-28-2.2-1.4-2,.3,1.1,7a93.87,93.87,0,0,1,5,16.8c1,5.6,2.5,10.7,3.2,11.5,4.5,4.4,16.2-6.7,26.8-25.5,2.6-4.6,3.9-5.4,3.9-2.6,0,1,.7,8.1,1.5,15.8s1.8,16.7,2.1,20c.9,9.2-3.6,49.8-8.7,77.3-12.3,67.1-52.5,174.7-86.6,231.3-8.1,13.5-28.7,42.9-30.9,44.2a2.88,2.88,0,0,0-1.4,2.3c0,1.7,11.5-12.5,23.3-28.7,18.4-25.4,33.9-54.9,52.2-99.4,15.9-38.7,33.1-90.6,40.9-123.5,6.8-28.8,12.5-66.2,12.7-83.5l.1-8,3.8,15c11.4,44.7,27.3,73.9,55.3,101.6,6.1,6,11.3,10.9,11.6,10.9s-3.6-4.4-8.8-9.7c-26.9-28-43.7-59.9-54-102.3-3.9-16.5-5.8-27.4-8.6-51.6l-2.3-20.1,3.3-8.9c4-10.7,5.7-19.8,5.2-27.9C1515.47,1000.16,1515.27,999.76,1515.17,1002.86Z" transform="translate(-50.7 15.16)"/><path class="cls-3" d="M452.47,1028.16c1.2,3.9,12.2,23.6,18.5,33,16.5,24.5,38.3,47.8,55.5,59.2,11.2,7.5,26.8,15.3,28.4,14.3.7-.4,1.1-5.8,1.1-14.3,0-13.1,1.1-26.7,2.6-32.6,1.1-4.4-1.8-2.8-3.5,2-1.1,2.9-1.5,8.9-1.5,23.1-.1,10.6-.4,19.3-.9,19.3a65,65,0,0,1-8-3.6c-29.3-14.7-58-45-85.1-89.9C455.27,1031.56,452.07,1026.76,452.47,1028.16Z" transform="translate(-50.7 15.16)"/><path class="cls-3" d="M1460.17,1038.66a420.38,420.38,0,0,1-27.2,39.7c-9.4,12.1-29.1,31.5-39.5,38.8-8.3,5.9-24.3,15-26.4,15-.4,0-.6-6.2-.3-13.8.4-13.9-1.4-30.2-3.7-32.5-1.9-1.9-2.1-.2-1,5.4.7,3,1.3,13.9,1.4,24.4l.2,19,2.4-.2c3.5-.4,17.2-7.4,25.8-13.1,26.1-17.6,53.4-50.1,72-86,2.3-4.6,4.1-8.5,3.9-8.7A139.89,139.89,0,0,0,1460.17,1038.66Z" transform="translate(-50.7 15.16)"/><path class="cls-3" d="M568,1103.76c0,1.9,12.4,21.8,19.1,30.5,18.4,24.2,50.2,50.1,79.4,64.7,17.2,8.6,50.9,19.4,55.2,17.8,1.9-.8,1.6-6.1-.7-15.8a136.79,136.79,0,0,1-2.7-17c-.3-4.8-1-8.5-1.4-8.2-1.5.9-1,14.6.6,20.9a96.23,96.23,0,0,1,2.2,11.7c.5,5.4.4,5.8-1.5,5.8-8,0-33.3-8.9-51.1-18a244,244,0,0,1-95.3-87.5C569.67,1105.36,568,1103.16,568,1103.76Z" transform="translate(-50.7 15.16)"/><path class="cls-3" d="M1347.47,1109.46c-25.2,39.3-59.9,70.3-100.5,89.6-16.7,7.9-38.3,15.1-45.4,15.1-3.2,0-3.2-.1-.1-13.8,3-13.2,3.3-23.6.9-25-1.4-.8-.5-2.2,5.6-9.3,8.8-10.3,23.1-29.9,21.7-29.9a83.05,83.05,0,0,0-6.3,7.7c-22.5,30.2-67.4,72.2-109.4,102.5a567,567,0,0,1-71.5,43.5c-22.7,11.4-56.2,24.3-63.2,24.3-3.1,0-6,1.5-4.6,2.3s13.8-1.8,22.8-4.8c26.1-8.7,66.3-28.8,96.4-48.2,4.6-3,8.5-5.3,8.7-5.1s-.8,3.5-2.2,7.3c-5.6,15.5-13.1,45.8-16.3,66.5-12.7,80.1,4.3,148.2,54.1,217.4,4.7,6.5,3.1,3-2.1-4.8-24.8-36.7-41.3-76.1-48-114.8-8.1-45.8-4.2-95.9,11.6-150.8,4.3-14.8,5.5-19.4,5.7-21.4.1-1.2,4.8-5.3,13.1-11.4a565.92,565.92,0,0,0,68.6-58.4c9.8-9.8,13.3-12.8,14.2-11.9,1.3,1.3-.3,16.1-2.8,25.7-1.9,7.3-2,14.3-.2,15,2.2.8,19.1-3.4,31-7.7,24.1-8.9,45.9-21.3,67.7-38.7,9.8-7.8,29-27.5,36.4-37.2,6.9-9.2,19.2-28.8,18.5-29.5C1351.67,1103.46,1349.67,1106.06,1347.47,1109.46Z" transform="translate(-50.7 15.16)"/><path class="cls-3" d="M1654.07,1110.76c0,1.1.3,1.4.6.6a2,2,0,0,0-.1-1.9C1654.27,1109.06,1654,1109.66,1654.07,1110.76Z" transform="translate(-50.7 15.16)"/><path class="cls-3" d="M693.57,1142.36c22.8,33.5,66.6,75.2,114.7,109.2,3.7,2.6,6.5,5.2,6.2,5.7s1.5,7.9,4,16.4c9.9,34,14.9,61.1,16.7,90.7,2.6,43-3.2,78.8-19.3,119.8-8.2,20.8-16.7,37.1-31.1,59-3.8,5.8-5.7,9.1-4.3,7.5,11.3-13.4,29.8-45.6,39-68,25.1-60.6,26.7-125.7,4.9-200.5-1.8-6.3-4.2-14.2-5.4-17.4s-1.8-6.1-1.5-6.4,1.9.6,3.7,2c12,9.1,51,30.5,74.8,41,22.5,9.9,46.8,17.2,49.4,14.8.5-.5-.1-1.1-1.5-1.4-11.6-2.2-15.5-3.3-23.7-6.2-44.5-16.2-96.1-46.2-140.2-81.8-33-26.5-66.1-59.5-84.9-84.4-3.4-4.5-6.4-8.2-6.7-8.2S690.47,1137.86,693.57,1142.36Z" transform="translate(-50.7 15.16)"/><path class="cls-3" d="M556.37,1314.66c-2.6,1.8-8.6,14-10.7,22-3,11.1-5.6,26.3-7.2,41.6-1.6,16.1-1.9,53.1-.5,56.4.5,1.3.9-2.6.9-10.5.3-33.6,5.3-74.6,11.5-92.8,3-8.8,5.2-12.9,8.3-15.8C561.57,1312.86,559.77,1312.16,556.37,1314.66Z" transform="translate(-50.7 15.16)"/><path class="cls-3" d="M1361.27,1315.66c10,10.1,17.5,49.2,19.4,100.8.8,21.4,2,20.3,2.2-2,.3-36.2-6.6-79.6-14.8-93.3-2.4-4-6.3-8-7.9-8C1359.17,1313.16,1359.47,1314,1361.27,1315.66Z" transform="translate(-50.7 15.16)"/><path class="cls-3" d="M1332.87,1356.86c-44.9,71-65.7,119.3-72.1,167.3-2.6,20.4-.7,58.6,3.3,64.9.8,1.2.9.7.4-1.9-3.3-19-3.2-54.5.3-73,8.1-42.9,26-84.5,64-148.5,11.2-18.9,10.4-17.5,10-17.5A82.57,82.57,0,0,0,1332.87,1356.86Z" transform="translate(-50.7 15.16)"/><path class="cls-3" d="M589.67,1363.36c26.4,45.1,37.5,66.9,49.3,96.3,16.3,40.9,22.3,81.2,17.5,118.1-.9,6.4-1.4,11.9-1.1,12.1s1.3-3.1,2.3-7.4c2.6-11.2,2.6-53.2-.1-67.8-7.1-39.1-24.5-81.2-53.6-130-12.2-20.3-19.8-32.5-20.5-32.5C583.27,1352.16,586,1357.26,589.67,1363.36Z" transform="translate(-50.7 15.16)"/><path class="cls-3" d="M762,1406.86c0,1.5.9,11.3,2.1,21.8,2.8,25.9,4,86.6,1.7,84.7a8.72,8.72,0,0,1-2.2-4.3c-1-5.1-11.1-24.7-18.5-36.1-7-10.7-20.1-28.5-20.1-27.3,0,.4,3.7,6.4,8.3,13.3,15.1,23,23.9,39.5,29.7,56l3.3,9.3-1.7,12.7c-2.3,17.5-6,35-10.1,47.8-1.9,5.9-3.3,10.9-3.1,11.1.7.7,6.9-15.2,9.2-23.7,7-26,9.9-55.3,9.1-93.5-.5-25.8-2.4-52.3-4.8-66.7C763.77,1405,762,1401.86,762,1406.86Z" transform="translate(-50.7 15.16)"/><path class="cls-3" d="M1155.57,1406.36c-.3,1.3-1.6,11.3-2.8,22.3-3,27.5-3.3,87.7-.5,108.5,3.1,22.9,8,42.1,14.1,55.1,3.5,7.5,3.2,5.1-.9-7.1s-9-35.3-10.7-50.3c-1.1-10.4-1.1-10.7,1.7-18.9,5.3-16,15.2-34.8,29.5-56.3,11.6-17.4,11.8-19.1.3-3.5-13.9,18.9-24.3,36.9-29.4,50.8a41,41,0,0,1-3.1,6.7c-1.9,1.9-.2-66.6,2.1-88,1.2-10.4,2.1-19.6,2.1-20.2C1158,1403.26,1156.27,1404.06,1155.57,1406.36Z" transform="translate(-50.7 15.16)"/><path class="cls-3" d="M708.37,1409.66c.3,2.2,1.3,7.6,2.1,12,1.9,10.7,1.9,36.8,0,50.4a238.48,238.48,0,0,1-38,98.9c-4.4,6.6-5.4,8.4-2.9,5.7,6.4-7.1,17.4-24.5,24-37.9a218.42,218.42,0,0,0,19.9-66.2c3.2-22.3.7-60.8-4.2-65.4C707.87,1405.76,707.77,1406.06,708.37,1409.66Z" transform="translate(-50.7 15.16)"/><path class="cls-3" d="M1209.17,1408.86c-5,12.5-6.1,46.3-2.4,68.5,4.8,28.5,14.1,54.3,27.5,76.7,5,8.4,19.2,28.1,20.2,28.1.3,0-2.3-4.2-5.9-9.3-17.9-25.8-31.5-58.1-37.8-90.4-1.5-8.1-2.2-16.1-2.5-31.8-.5-20.4,0-26.1,3.3-41.8.4-1.5.2-2.7-.4-2.7S1209.77,1407.36,1209.17,1408.86Z" transform="translate(-50.7 15.16)"/></svg>