<svg id="Layer_1" data-name="Layer 1" xmlns="http://www.w3.org/2000/svg" viewBox="0 0 150 150"><defs><style>.cls-1{fill:#2e2f80;}</style></defs><title>wing2</title><path class="cls-1" d="M0,150S27.55,69.35,44.39,59.68c0,0,47.45-41.94,105.61-59.68,0,0-7.65,32.26-36.73,56.45C113.27,56.45,35.2,83.87,0,150Z"/><path class="cls-1" d="M45.15,108.87s9.19-19.35,62.76-30.64c0,0,34.44-13.71,37.5-25,0,0-7.65,29-45.92,45.16C99.49,98.39,55.1,100,45.15,108.87Z"/><path class="cls-1" d="M18.37,133.87s13.77-17.74,29.08-17.74c0,0,47.45,0,59.69-8.07a46.59,46.59,0,0,1-38.26,19.36H39.8S26,127.42,18.37,133.87Z"/></svg>